<?xml version="1.0" encoding="UTF-8"?>
<svg version="1.1" xmlns="http://www.w3.org/2000/svg" width="2816" height="1536">
<path d="M0 0 C929.28 0 1858.56 0 2816 0 C2816 506.88 2816 1013.76 2816 1536 C1886.72 1536 957.44 1536 0 1536 C0 1029.12 0 522.24 0 0 Z " fill="#010202" transform="translate(0,0)"/>
<path d="M0 0 C3.4987618 1.35320871 6.38435562 2.79338556 9.44140625 4.9765625 C10.26584229 5.56058838 11.09027832 6.14461426 11.93969727 6.74633789 C13.23798462 7.67627563 13.23798462 7.67627563 14.5625 8.625 C16.37430633 9.90853182 18.18680245 11.19109051 20 12.47265625 C20.86882813 13.0877002 21.73765625 13.70274414 22.6328125 14.33642578 C26.31940045 16.92722718 30.0715637 19.40839818 33.83203125 21.890625 C44.62831393 29.07927191 55.27395794 36.49751771 65.96020508 43.84838867 C81.52970314 54.55613589 97.14919235 65.19009031 112.77832031 75.81054688 C116.98347014 78.66836619 121.18782633 81.52735161 125.39208984 84.38647461 C127.45745913 85.79102307 129.52288843 87.19548327 131.58837891 88.59985352 C136.42528249 91.8885974 141.26182844 95.17786338 146.0970459 98.46908569 C147.79963298 99.62796075 149.502338 100.78666232 151.20507812 101.9453125 C153.33421811 103.39418784 155.46313972 104.84338415 157.59179688 106.29296875 C163.37373846 110.22699412 169.17234131 114.13399234 175 118 C171.4969356 121.71833651 167.86855275 124.61543349 163.5625 127.375 C162.20490581 128.26306552 160.84818631 129.15246913 159.4921875 130.04296875 C158.76354492 130.52040527 158.03490234 130.9978418 157.28417969 131.48974609 C153.22073065 134.17641729 149.20695408 136.93563656 145.1875 139.6875 C135.47919455 146.32267903 125.74254136 152.91524488 116 159.5 C103.83351006 167.72411911 91.68234943 175.96972719 79.55664062 184.25390625 C75.03971537 187.33880402 70.5196548 190.4191033 66 193.5 C60.56959274 197.20207111 55.13946167 200.90454302 49.7109375 204.609375 C45.17997351 207.70138998 40.64705337 210.79052222 36.11328125 213.87841797 C33.86524635 215.41036773 31.61784033 216.94321417 29.37109375 218.47705078 C26.17169795 220.66111824 22.97054617 222.84259198 19.76837158 225.02258301 C18.51480768 225.87661155 17.2618284 226.73149892 16.00946045 227.58728027 C14.25526459 228.78575827 12.49897615 229.98110832 10.7421875 231.17578125 C9.7301123 231.86583252 8.71803711 232.55588379 7.67529297 233.2668457 C5.48815704 234.68375371 3.3597098 235.90579954 1 237 C1.62034627 229.90257214 3.46455744 223.38880304 5.4921875 216.57421875 C5.83879425 215.39084427 6.185401 214.20746979 6.54251099 212.98823547 C7.64755727 209.21959587 8.76098769 205.4534979 9.875 201.6875 C10.98008476 197.93170843 12.08343246 194.17541151 13.18606567 190.41889954 C13.87099687 188.08762587 14.55764008 185.75685426 15.24630737 183.42668152 C15.56318512 182.35219254 15.88006287 181.27770355 16.20654297 180.1706543 C16.48110321 179.24214157 16.75566345 178.31362885 17.0385437 177.35697937 C18.40544392 172.58436948 19.69375467 167.78956622 21 163 C-214.62 163 -450.24 163 -693 163 C-691.72239289 155.33435731 -690.38104097 147.85345992 -688.609375 140.3125 C-688.38400055 139.33849747 -688.1586261 138.36449493 -687.92642212 137.36097717 C-687.44893291 135.29817411 -686.96991343 133.23572473 -686.48944092 131.1736145 C-685.24312548 125.82453973 -684.00734738 120.47304211 -682.7734375 115.12109375 C-682.53158722 114.07247665 -682.28973694 113.02385956 -682.04055786 111.94346619 C-679.79865994 102.18875993 -677.68298662 92.41045153 -675.66308594 82.60742188 C-675.45200195 81.59357422 -675.24091797 80.57972656 -675.0234375 79.53515625 C-674.84731934 78.672854 -674.67120117 77.81055176 -674.48974609 76.92211914 C-674 75 -674 75 -673 74 C-671.4778291 73.90269978 -669.95113071 73.87552673 -668.42585319 73.8758015 C-667.42881436 73.87355421 -666.43177553 73.87130692 -665.4045234 73.86899152 C-663.73834032 73.87293204 -663.73834032 73.87293204 -662.03849697 73.87695217 C-660.86561179 73.87579833 -659.69272661 73.87464448 -658.48429945 73.87345567 C-655.19948669 73.87124959 -651.9147314 73.87357808 -648.62992405 73.87773381 C-645.06741452 73.8811512 -641.50490827 73.87880044 -637.94239813 73.87715632 C-631.68901476 73.87507665 -625.43564088 73.87673642 -619.18225861 73.88079453 C-609.88360549 73.88681215 -600.58495839 73.88713195 -591.28630368 73.88625254 C-575.64696714 73.88493641 -560.0076348 73.88828848 -544.36829948 73.89426994 C-528.87580278 73.90018011 -513.38330783 73.9040345 -497.89081001 73.90512276 C-496.44772612 73.90522587 -496.44772612 73.90522587 -494.97548903 73.90533106 C-490.09000682 73.90566938 -485.20452461 73.90597077 -480.31904239 73.90625793 C-445.68461756 73.90836024 -411.05019502 73.91510288 -376.41577148 73.92456055 C-342.76180025 73.93373989 -309.10782965 73.940826 -275.45385742 73.94506836 C-274.41711415 73.94519989 -273.38037087 73.94533141 -272.31221113 73.94546692 C-261.90113121 73.9467854 -251.49005128 73.94806122 -241.07897135 73.94930578 C-219.86901818 73.95184223 -198.65906505 73.95466348 -177.44911194 73.95765686 C-176.47383992 73.95779415 -175.49856789 73.95793144 -174.49374217 73.95807289 C-109.32916049 73.96727883 -44.16458009 73.98312464 21 74 C19.00151656 66.86135953 17.00180627 59.72306385 15.00063801 52.58517551 C14.07089624 49.26877681 13.14153734 45.95227192 12.21313477 42.63549805 C8.22763811 28.39809141 4.23720697 14.16489383 0 0 Z " fill="#DF2827" transform="translate(920,428)"/>
<path d="M0 0 C0.77775787 -0.00261841 1.55551575 -0.00523682 2.35684204 -0.00793457 C15.49692807 -0.01263159 28.1030818 1.0728384 40.99365234 3.77441406 C43.32002748 4.26171028 45.64915126 4.69656152 47.98828125 5.1171875 C83.71717912 12.01364656 117.3711431 32.71058903 138.18359375 62.5703125 C139.5625 65.3125 139.5625 65.3125 139.34277344 67.3059082 C138.4150317 69.69173717 137.45809911 70.58398992 135.45703125 72.16015625 C134.81064697 72.67698975 134.1642627 73.19382324 133.49829102 73.72631836 C132.44726196 74.54241577 132.44726196 74.54241577 131.375 75.375 C130.65175537 75.94935791 129.92851074 76.52371582 129.18334961 77.11547852 C126.98428209 78.85812217 124.77505651 80.58702863 122.5625 82.3125 C121.36956782 83.24711019 120.17684278 84.18198485 118.984375 85.1171875 C117.29910909 86.43845351 115.61337925 87.75906729 113.92504883 89.07641602 C109.23946924 92.74451022 104.64562507 96.51751645 100.0625 100.3125 C93.23147371 105.96671422 86.31539458 111.49264671 79.31689453 116.9375 C77.41868093 118.42521765 75.53469114 119.92976527 73.65234375 121.4375 C73.00998779 121.94966064 72.36763184 122.46182129 71.70581055 122.98950195 C70.46863923 123.97652696 69.23429304 124.96710634 68.00317383 125.96166992 C63.78713767 129.3125 63.78713767 129.3125 61.5625 129.3125 C60.33643383 127.73183626 59.18271335 126.09486483 58.0625 124.4375 C45.80116997 107.24954547 27.89502254 95.92717439 7.04296875 92.25 C0.77333506 91.24000112 -5.34479141 90.96524543 -11.6875 91 C-12.77796631 91.00563965 -13.86843262 91.0112793 -14.99194336 91.01708984 C-41.99451269 91.42050076 -65.58073301 102.05232121 -85.125 120.5625 C-94.90022205 130.78530548 -101.59476826 142.54451812 -107.4375 155.3125 C-107.84742188 156.17101562 -108.25734375 157.02953125 -108.6796875 157.9140625 C-112.23974653 165.94489334 -113.73752509 174.73525754 -115.4375 183.3125 C-115.63214844 184.24191406 -115.82679688 185.17132812 -116.02734375 186.12890625 C-118.54390784 205.66223707 -117.20865491 227.77937788 -105.4375 244.3125 C-93.77418042 259.25052085 -78.67497615 268.67503065 -59.94921875 271.87890625 C-28.88575149 275.43712492 -0.16315908 268.93256627 24.69140625 249.65625 C32.8719701 243.18899416 32.8719701 243.18899416 39.5625 235.3125 C44.01747012 235.73369672 46.46837972 238.81830046 49.43261719 241.84204102 C50.00866196 242.41764771 50.58470673 242.99325439 51.1782074 243.58630371 C53.07912777 245.48931292 54.96920358 247.40272515 56.859375 249.31640625 C58.17579748 250.63842432 59.49288417 251.95978128 60.81060791 253.28050232 C64.27618093 256.75752689 67.73265039 260.24346658 71.18731689 263.73132324 C74.71448828 267.28918859 78.25017287 270.8385712 81.78515625 274.38867188 C88.71930811 281.3549934 95.64387469 288.33076039 102.5625 295.3125 C101.63058743 296.57553598 100.69576609 297.836426 99.75976562 299.09643555 C99.23950806 299.79882858 98.71925049 300.50122162 98.18322754 301.22489929 C95.70085459 304.42235438 92.93583888 307.28001239 90.0625 310.125 C89.45720459 310.72538086 88.85190918 311.32576172 88.22827148 311.94433594 C82.06872267 317.94860201 75.51132877 323.25529684 68.5625 328.3125 C68.00046875 328.72951172 67.4384375 329.14652344 66.859375 329.57617188 C22.2158677 362.39324548 -39.70364847 370.25435563 -93.4375 362.3125 C-127.41960269 356.61657154 -159.45996105 343.57398809 -184.4375 319.3125 C-185.31535156 318.508125 -186.19320312 317.70375 -187.09765625 316.875 C-207.08362943 297.98530383 -218.80068042 271.91152425 -224.4375 245.3125 C-224.61506836 244.50683594 -224.79263672 243.70117188 -224.97558594 242.87109375 C-226.90981424 232.90666235 -226.87741057 222.92473811 -226.875 212.8125 C-226.8760675 211.8628537 -226.87713501 210.9132074 -226.87823486 209.93478394 C-226.78804805 154.21163324 -203.88092173 102.16691491 -164.86328125 62.63671875 C-160.33708845 58.17102488 -155.41183737 54.26462406 -150.4375 50.3125 C-149.49390625 49.54035156 -148.5503125 48.76820313 -147.578125 47.97265625 C-117.88929102 24.24466329 -82.38717111 9.36567859 -45.0625 3 C-43.67514648 2.76095947 -43.67514648 2.76095947 -42.25976562 2.51708984 C-28.30565218 0.29667214 -14.10552946 0.04621721 0 0 Z " fill="#FDFDFD" transform="translate(742.4375,621.6875)"/>
<path d="M0 0 C124.08 0 248.16 0 376 0 C376 0.66 376 1.32 376 2 C375.51273438 2.24492188 375.02546875 2.48984375 374.5234375 2.7421875 C350.01450736 15.66507794 328.21385398 36.75023772 312 59 C311.60087402 59.54366211 311.20174805 60.08732422 310.79052734 60.64746094 C304.85349877 68.79344576 300.02784639 77.20126882 295 86 C263.32 86 231.64 86 199 86 C198.34 89.96 197.68 93.92 197 98 C196.40155191 100.81384173 195.78597563 103.60644653 195.1171875 106.40234375 C194.94212677 107.1498439 194.76706604 107.89734406 194.58670044 108.66749573 C194.21292494 110.26337809 193.83764307 111.8589083 193.4609375 113.45410156 C190.16131613 127.43899681 186.9980824 141.4475303 184 155.5 C181.2537671 168.36477701 178.36379548 181.18944733 175.375 194 C172.51068225 206.27839141 169.80177536 218.56932307 167.30810547 230.92944336 C165.21777384 241.18321297 162.87490085 251.37148526 160.5 261.5625 C157.89252629 272.75352942 155.31719049 283.94520005 152.9375 295.1875 C150.76508638 305.44654666 148.5515065 315.69552326 146.28860474 325.93496704 C145.9331323 327.54535848 145.57883909 329.15601072 145.22579956 330.76693726 C144.73182742 333.01981706 144.23364852 335.27172744 143.734375 337.5234375 C143.5887764 338.19094528 143.4431778 338.85845306 143.29316711 339.54618835 C142.41091032 343.49775667 141.29011264 347.12966209 140 351 C104.36 351 68.72 351 32 351 C33.12540193 343.1221865 33.12540193 343.1221865 33.796875 339.96875 C33.94827942 339.2528067 34.09968384 338.5368634 34.25567627 337.79922485 C34.4188031 337.04048065 34.58192993 336.28173645 34.75 335.5 C34.92392273 334.68348969 35.09784546 333.86697937 35.27703857 333.02572632 C35.84841625 330.34984452 36.42391743 327.67487257 37 325 C37.19775024 324.07793762 37.39550049 323.15587524 37.59924316 322.20587158 C40.70539768 307.73425596 43.9676833 293.303231 47.32983398 278.88916016 C49.49317585 269.61244134 51.61049598 260.33729903 53.5 251 C55.5636349 240.80944502 57.89287051 230.68819535 60.25 220.5625 C63.42607224 206.9153146 66.51399755 193.25255237 69.5 179.5625 C72.88117268 164.06476558 76.32431856 148.58229237 79.82055664 133.11010742 C80.18771274 131.48487457 80.55481963 129.8596306 80.921875 128.234375 C81.18803871 127.05588737 81.18803871 127.05588737 81.45957947 125.85359192 C82.59760072 120.80671935 83.71930937 115.7564898 84.828125 110.703125 C85.10309814 109.45257324 85.37807129 108.20202148 85.66137695 106.91357422 C86.16009535 104.63976973 86.65624431 102.36539933 87.14916992 100.09033203 C87.36677979 99.09888184 87.58438965 98.10743164 87.80859375 97.0859375 C88.08401001 95.8182251 88.08401001 95.8182251 88.36499023 94.52490234 C89.09042788 91.64044402 90.05944912 88.82165264 91 86 C55.03 86 19.06 86 -18 86 C-16.87568666 74.75686658 -16.87568666 74.75686658 -15.90625 70.55859375 C-15.68485352 69.58253174 -15.46345703 68.60646973 -15.23535156 67.60083008 C-14.99268555 66.55693115 -14.75001953 65.51303223 -14.5 64.4375 C-13.96262554 62.07572909 -13.42623636 59.71373387 -12.890625 57.3515625 C-12.67258209 56.39450157 -12.67258209 56.39450157 -12.45013428 55.41810608 C-11.16159196 49.75121325 -9.91293644 44.07589837 -8.671875 38.3984375 C-8.47198975 37.48427567 -8.27210449 36.57011383 -8.06616211 35.62825012 C-7.26187029 31.94787529 -6.45824434 28.26735591 -5.65551758 24.5866394 C-5.08913319 21.99111597 -4.52124847 19.39592449 -3.953125 16.80078125 C-3.7856073 16.0308786 -3.6180896 15.26097595 -3.44549561 14.46774292 C-3.28462463 13.73371246 -3.12375366 12.99968201 -2.95800781 12.2434082 C-2.82066223 11.61425003 -2.68331665 10.98509186 -2.54180908 10.33686829 C-1.74039292 6.88029277 -0.86058059 3.44232236 0 0 Z " fill="#FDFDFC" transform="translate(219,628)"/>
<path d="M0 0 C-1.61539832 10.7195061 -3.90120865 21.28378397 -6.1875 31.875 C-6.38630768 32.80040588 -6.58511536 33.72581177 -6.78994751 34.67926025 C-9.57923689 47.65722525 -12.48957214 60.59866193 -15.55004883 73.51538086 C-17.4291692 81.46918293 -19.18969451 89.44051501 -20.875 97.4375 C-23.27605925 108.82594274 -25.86279652 120.1643577 -28.5 131.5 C-31.39175487 143.93338064 -34.1960664 156.37562777 -36.83642578 168.86523438 C-38.88821001 178.55021999 -41.05829056 188.20618529 -43.25219727 197.85986328 C-44.85850668 204.93093727 -46.44918509 212.00504623 -48.01171875 219.0859375 C-48.18043991 219.85022064 -48.34916107 220.61450378 -48.522995 221.40194702 C-48.77663567 222.55093979 -48.77663567 222.55093979 -49.03540039 223.72314453 C-51.57249679 235.21573714 -54.12747148 246.69533603 -56.9375 258.125 C-58.76858329 265.58156406 -60.46141098 273.05986233 -62.0546875 280.5703125 C-62.23973343 281.4417691 -62.42477936 282.31322571 -62.61543274 283.21109009 C-63.52428353 287.50099466 -64.42529419 291.79234753 -65.31420898 296.08642578 C-69.11777019 314.18454366 -73.61976225 331.9923559 -78 350 C-113.31 350 -148.62 350 -185 350 C-183.22411761 339.93666644 -181.45066101 330.00492731 -179.1875 320.0625 C-178.92960693 318.91483154 -178.67171387 317.76716309 -178.40600586 316.5847168 C-176.41380262 307.74586425 -174.3660802 298.91993701 -172.31445312 290.09472656 C-170.36721079 281.68253958 -168.51674793 273.25101191 -166.6875 264.8125 C-164.03547459 252.58094646 -161.26540263 240.3795482 -158.4375 228.1875 C-154.17967123 209.82034767 -150.01973133 191.43545845 -146.06640625 173 C-145.37800371 169.79158076 -144.6892401 166.58323942 -144 163.375 C-143.82814178 162.57496552 -143.65628357 161.77493103 -143.47921753 160.95065308 C-141.22118189 150.45625604 -138.85423702 140.00015656 -136.29785156 129.57373047 C-133.42283888 117.77915675 -130.8288146 105.92080603 -128.21890259 94.06530762 C-127.89958463 92.62183036 -127.57688949 91.17909543 -127.25057983 89.73718262 C-126.60682348 86.87689735 -126.0055926 84.03747683 -125.57275391 81.13696289 C-124.94610831 77.0637665 -124.09104866 74.63868982 -120.9296875 72.05859375 C-119.5958246 71.15810555 -118.24256925 70.28592418 -116.875 69.4375 C-116.13725342 68.94846191 -115.39950684 68.45942383 -114.6394043 67.95556641 C-113.00408061 66.87472306 -111.36095755 65.805615 -109.71142578 64.74658203 C-105.75457347 62.19775064 -101.8476209 59.57559814 -97.93457031 56.96020508 C-95.84898582 55.56726035 -93.7610802 54.17778481 -91.67089844 52.79174805 C-85.69642649 48.82764118 -79.80427213 44.7844384 -74.00292969 40.57226562 C-69.59855468 37.3888268 -65.09597978 34.37106896 -60.5625 31.375 C-53.36825572 26.61815849 -46.26457631 21.74182402 -39.1875 16.8125 C-37.70648804 15.790354 -37.70648804 15.790354 -36.19555664 14.74755859 C-32.10771056 11.91780225 -28.05134834 9.09687126 -24.17578125 5.98046875 C-16.06398492 -0.43334171 -10.09885111 -1.13140656 0 0 Z " fill="#FDFDFD" transform="translate(1047,629)"/>
<path d="M0 0 C13.096875 -0.061875 26.19375 -0.12375 39.6875 -0.1875 C43.79791748 -0.21481201 47.90833496 -0.24212402 52.14331055 -0.27026367 C57.22619629 -0.28381348 57.22619629 -0.28381348 59.61799622 -0.28633118 C61.2616165 -0.29088879 62.9052278 -0.30133588 64.54878235 -0.31672668 C84.0198698 -0.48968598 101.86398247 2.75299572 117 16 C122.30256176 21.55315541 126.0096092 27.95522167 129 35 C129.36996094 35.85464844 129.73992188 36.70929687 130.12109375 37.58984375 C131.39353248 42.52690602 131.2888523 47.29829991 131.25 52.375 C131.25773437 53.37789062 131.26546875 54.38078125 131.2734375 55.4140625 C131.25800147 61.31062448 130.71288864 66.35609355 129 72 C128.73960937 72.86367188 128.47921875 73.72734375 128.2109375 74.6171875 C124.22574387 85.38093478 117.05184298 93.4541556 107 99 C105.00653994 99.68597481 103.0070847 100.35497639 101 101 C101.43119141 101.63164063 101.86238281 102.26328125 102.30664062 102.9140625 C110.60567075 115.07779409 118.87722403 127.25935962 127.0625 139.5 C128.10664063 141.05654297 128.10664063 141.05654297 129.171875 142.64453125 C129.80738281 143.59714844 130.44289063 144.54976562 131.09765625 145.53125 C131.65976807 146.37236328 132.22187988 147.21347656 132.80102539 148.08007812 C134 150 134 150 134 151 C121.89715735 153.57246655 106.57026166 156.72379921 95 151 C87.74306035 144.68310758 83.46711802 135.3850315 78.92700195 127.06555176 C72.9444312 114.90475195 72.9444312 114.90475195 62.70458984 106.91259766 C53.19168732 104.53769959 44.82452041 106.53493994 35 108 C35 122.19 35 136.38 35 151 C23.45 151 11.9 151 0 151 C0 101.17 0 51.34 0 0 Z " fill="#FDFDFD" transform="translate(2062,626)"/>
<path d="M0 0 C19.42875 -0.061875 19.42875 -0.061875 39.25 -0.125 C43.31731445 -0.14320801 47.38462891 -0.16141602 51.57519531 -0.18017578 C56.59912109 -0.18920898 56.59912109 -0.18920898 58.96209717 -0.19088745 C60.58824768 -0.19392875 62.2143941 -0.20089972 63.84051514 -0.21115112 C76.33350884 -0.28587034 88.52939892 -0.19337296 100.125 5.0625 C100.80167725 5.36559082 101.47835449 5.66868164 102.17553711 5.98095703 C113.89250727 11.52293719 123.06849902 21.71104072 128.17578125 33.56640625 C133.38642986 48.9514019 132.76875662 66.08700555 125.6796875 80.7265625 C117.43144593 95.6455131 103.9277718 102.35131311 88 107 C82.0552534 108.08624779 76.27184146 108.12967502 70.25390625 108.09765625 C69.24279282 108.0962413 68.23167938 108.09482635 67.18992615 108.09336853 C63.98075319 108.08779961 60.77165164 108.07525287 57.5625 108.0625 C55.37825622 108.05748098 53.19401134 108.05291878 51.00976562 108.04882812 C45.67312786 108.03869399 40.33664327 108.01911253 35 108 C35 122.19 35 136.38 35 151 C23.45 151 11.9 151 0 151 C0 101.17 0 51.34 0 0 Z " fill="#FEFEFD" transform="translate(1907,626)"/>
<path d="M0 0 C37.62 0 75.24 0 114 0 C114 9.24 114 18.48 114 28 C87.93 28 61.86 28 35 28 C35 38.56 35 49.12 35 60 C58.1 60 81.2 60 105 60 C105 69.24 105 78.48 105 88 C81.9 88 58.8 88 35 88 C35 99.22 35 110.44 35 122 C62.06 122 89.12 122 117 122 C117 131.57 117 141.14 117 151 C78.39 151 39.78 151 0 151 C0 101.17 0 51.34 0 0 Z " fill="#FCFDFC" transform="translate(1612,626)"/>
<path d="M0 0 C37.95 0 75.9 0 115 0 C115 9.24 115 18.48 115 28 C88.6 28 62.2 28 35 28 C35 38.56 35 49.12 35 60 C58.1 60 81.2 60 105 60 C105 68.91 105 77.82 105 87 C81.9 87 58.8 87 35 87 C35.33 98.55 35.66 110.1 36 122 C63.06 122.33 90.12 122.66 118 123 C118 132.24 118 141.48 118 151 C79.06 151 40.12 151 0 151 C0 101.17 0 51.34 0 0 Z " fill="#FEFEFE" transform="translate(2220,626)"/>
<path d="M0 0 C2.00070646 0.00313515 4.00139502 -0.02108949 6.00195312 -0.0456543 C18.15950817 -0.05163735 29.70466238 1.52812162 40.96289062 6.31567383 C42.15011719 6.81067383 43.33734375 7.30567383 44.56054688 7.81567383 C47.72032818 9.23480368 50.81677473 10.73866479 53.90039062 12.31567383 C53.38436978 19.00518043 50.94415114 24.61868315 48.33789062 30.75317383 C47.70077148 32.27974609 47.70077148 32.27974609 47.05078125 33.8371582 C46.0078634 36.33313014 44.95759121 38.82572597 43.90039062 41.31567383 C42.84980469 40.84516602 41.79921875 40.3746582 40.71679688 39.88989258 C27.03929348 33.80484579 15.67921576 30.15001322 0.52539062 30.00317383 C-0.46460937 29.97416992 -1.45460938 29.94516602 -2.47460938 29.9152832 C-10.30854198 29.84810568 -16.54102227 31.29087479 -22.59960938 36.44067383 C-25.97736293 40.66286578 -25.65954906 45.10329411 -25.09960938 50.31567383 C-22.40218514 55.71052229 -17.51903603 57.35480993 -12.09960938 59.31567383 C-5.51022858 61.14510557 1.14797003 62.68396389 7.80688477 64.23754883 C16.25089347 66.21958587 24.53482794 68.34614059 32.67382812 71.37036133 C33.31498062 71.60709564 33.95613312 71.84382996 34.61671448 72.08773804 C45.9822453 76.48501785 53.38820233 83.72796062 58.99023438 94.38989258 C63.16912362 104.50010849 61.76956919 117.2966518 58.22460938 127.34692383 C52.13162171 141.00671918 42.3598415 147.74921719 28.90039062 153.31567383 C28.15144531 153.65985352 27.4025 154.0040332 26.63085938 154.35864258 C16.94224643 157.75450835 7.04345033 157.71715073 -3.09960938 157.69067383 C-3.87929077 157.69013 -4.65897217 157.68958618 -5.46228027 157.68902588 C-17.12184675 157.65156518 -27.97031038 157.07982417 -39.09960938 153.31567383 C-39.75751465 153.0960498 -40.41541992 152.87642578 -41.09326172 152.65014648 C-49.80597681 149.67142245 -57.56258847 145.61195879 -65.09960938 140.31567383 C-64.47126433 136.5245585 -63.36432135 133.30786931 -61.81445312 129.79614258 C-61.36650391 128.77456055 -60.91855469 127.75297852 -60.45703125 126.70043945 C-59.75416992 125.11779297 -59.75416992 125.11779297 -59.03710938 123.50317383 C-58.56466797 122.42874023 -58.09222656 121.35430664 -57.60546875 120.24731445 C-56.44128402 117.60144007 -55.27253106 114.95768388 -54.09960938 112.31567383 C-50.50539673 113.7120143 -47.13807282 115.32353463 -43.73168945 117.13378906 C-35.36833764 121.53774844 -27.34217836 124.32306151 -18.09960938 126.31567383 C-17.30675537 126.49074463 -16.51390137 126.66581543 -15.69702148 126.84619141 C-11.42745223 127.61791635 -7.17805726 127.54139081 -2.84960938 127.56567383 C-1.94597656 127.58629883 -1.04234375 127.60692383 -0.11132812 127.62817383 C9.108894 127.68123985 16.22526489 125.82392142 22.90039062 119.31567383 C24.76611113 115.58423281 24.44609966 111.37960114 23.90039062 107.31567383 C16.89236801 96.91667252 -0.3802812 95.29564266 -11.86303711 92.8671875 C-28.77491159 89.27002443 -46.85030945 84.34640235 -57.09960938 69.31567383 C-63.39347407 59.17470357 -63.97207513 46.68423588 -61.40039062 35.19067383 C-60.48660779 32.72307462 -59.44013264 30.57754744 -58.09960938 28.31567383 C-57.65230469 27.54094727 -57.205 26.7662207 -56.74414062 25.96801758 C-48.4238855 12.60653549 -37.16228716 6.15552216 -22.09960938 2.31567383 C-21.48118164 2.13689697 -20.86275391 1.95812012 -20.22558594 1.77392578 C-13.53276468 0.01286346 -6.89126427 -0.02247151 0 0 Z " fill="#FCFCFB" transform="translate(2420.099609375,622.684326171875)"/>
<path d="M0 0 C-0.62834505 3.79111532 -1.73528803 7.00780452 -3.28515625 10.51953125 C-3.95708008 12.0519043 -3.95708008 12.0519043 -4.64257812 13.61523438 C-5.11115234 14.67033203 -5.57972656 15.72542969 -6.0625 16.8125 C-6.53494141 17.88693359 -7.00738281 18.96136719 -7.49414062 20.06835938 C-8.65832536 22.71423376 -9.82707832 25.35798995 -11 28 C-14.9748076 26.72970066 -18.75408381 25.26278039 -22.5625 23.5625 C-33.22816141 19.17152125 -42.72035321 17.70008965 -54.1875 17.5 C-55.1971582 17.4693042 -56.20681641 17.4386084 -57.24707031 17.40698242 C-65.69267073 17.40490903 -72.18266497 19.72799854 -78.625 25.25 C-80.61234646 29.22469292 -80.62695687 32.64304653 -80 37 C-78.60480447 40.92398743 -77.20468217 41.87491645 -73.625 44.0625 C-65.31759129 47.79113946 -56.67114869 49.89916821 -47.7878418 51.70507812 C-29.5887758 55.42045321 -10.43333142 60.1715178 1 76 C6.91941729 85.73375306 7.7248563 98.29181586 5.3125 109.375 C0.10761166 123.75040589 -7.66865517 132.33432758 -21.296875 139.1484375 C-41.64996462 148.23219897 -67.757389 147.28219266 -89 142 C-90.13050781 141.7215625 -91.26101562 141.443125 -92.42578125 141.15625 C-102.06338989 138.47849526 -112.15650164 134.30931775 -120 128 C-119.02309743 122.13462687 -116.52397374 117.12174354 -114.0625 111.75 C-113.60681641 110.73164062 -113.15113281 109.71328125 -112.68164062 108.6640625 C-112.24142578 107.69726562 -111.80121094 106.73046875 -111.34765625 105.734375 C-110.94554932 104.84975586 -110.54344238 103.96513672 -110.12915039 103.05371094 C-109 101 -109 101 -107 100 C-105.27195021 100.95057923 -103.59272833 101.99013061 -101.9375 103.0625 C-88.03635538 111.41655326 -72.98707166 115.08016384 -56.875 115.3125 C-55.621427 115.33932861 -55.621427 115.33932861 -54.3425293 115.36669922 C-46.85298697 115.35635761 -38.99407459 113.76000041 -33 109 C-30.38474671 104.94184834 -29.29875252 101.80855413 -30 97 C-33.09572001 90.55058332 -37.6415693 88.63427886 -44.00537109 86.24804688 C-49.9033445 84.21607669 -55.82748337 82.90971039 -61.9375 81.6875 C-75.89341312 78.75562325 -90.29852071 75.56315151 -102 67 C-102.65226562 66.52820313 -103.30453125 66.05640625 -103.9765625 65.5703125 C-111.60405081 59.56569404 -115.6109065 51.49405229 -117 42 C-118.0075502 29.43039829 -115.65638233 18.32194876 -107.89453125 8.20703125 C-81.95401004 -22.01233882 -31.97444587 -15.98722293 0 0 Z " fill="#FCFCFB" transform="translate(2615,635)"/>
<path d="M0 0 C5.49444851 -0.3739677 10.98136183 -0.6442543 16.4855957 -0.82397461 C18.35181715 -0.89892003 20.2171719 -1.00093955 22.08032227 -1.1315918 C37.07838955 -2.15610483 37.07838955 -2.15610483 41.88592529 1.39178467 C45.2707815 4.9074135 47.70813239 8.92200853 50.01742554 13.19918823 C51.21883221 15.40106439 52.62070863 17.40955451 54.09375 19.4375 C54.89780352 20.62366688 55.69995973 21.81112259 56.5 23 C61.80960992 30.80888085 67.36965411 38.42026937 73 46 C77.62555436 41.74621917 81.02168116 36.92143963 84.5625 31.75 C85.7991472 29.96331185 87.03613272 28.17685783 88.2734375 26.390625 C88.8931543 25.49279297 89.51287109 24.59496094 90.15136719 23.66992188 C92.97218501 19.59590396 95.82778894 15.54676934 98.6875 11.5 C99.18000244 10.80100586 99.67250488 10.10201172 100.17993164 9.38183594 C100.87010376 8.4039209 100.87010376 8.4039209 101.57421875 7.40625 C101.97213623 6.84228516 102.37005371 6.27832031 102.7800293 5.69726562 C103.38391479 4.85711914 103.38391479 4.85711914 104 4 C104.36303223 3.27780273 104.72606445 2.55560547 105.10009766 1.81152344 C107.66406224 -0.63317165 109.85256999 -0.45451496 113.28605652 -0.45318604 C114.54244682 -0.42221832 114.54244682 -0.42221832 115.82421875 -0.390625 C116.68561966 -0.38496521 117.54702057 -0.37930542 118.43452454 -0.37347412 C121.18608148 -0.3510813 123.93633663 -0.3008808 126.6875 -0.25 C128.55271557 -0.2299387 130.41795155 -0.21168728 132.28320312 -0.1953125 C136.85597042 -0.15120713 141.4277645 -0.08216057 146 0 C142.00800814 6.41149179 137.92794214 12.64664588 133.3125 18.625 C128.5984251 24.82166149 124.04725376 31.11106606 119.58251953 37.48925781 C116.39357175 42.0401412 113.15685569 46.55212449 109.88525391 51.04394531 C104.65844483 58.22047293 99.63760202 65.4250031 95 73 C95.35078613 73.47083008 95.70157227 73.94166016 96.06298828 74.42675781 C103.46188547 84.37344499 110.72863051 94.39515585 117.80810547 104.57177734 C121.73590393 110.21200348 125.71764775 115.80906698 129.75 121.375 C130.28367187 122.11218262 130.81734375 122.84936523 131.3671875 123.60888672 C133.40028562 126.41569162 135.43468651 129.22154475 137.47119141 132.02587891 C138.83827367 133.91071719 140.20086194 135.79872667 141.5625 137.6875 C142.32691406 138.74324219 143.09132813 139.79898438 143.87890625 140.88671875 C146.12099951 144.17759965 148.04201031 147.53428913 150 151 C144.30784332 151.27322046 138.61954402 151.47207961 132.92236328 151.60424805 C130.98776754 151.65936059 129.05362583 151.73428109 127.12060547 151.82983398 C111.14566003 152.59936381 111.14566003 152.59936381 106.17700195 148.89575195 C104.08823378 146.03640492 102.5567864 143.17692749 101 140 C99.73273622 138.13100565 98.43419099 136.28284465 97.10546875 134.45703125 C95.79799532 132.57655167 94.49203461 130.6950195 93.1875 128.8125 C92.50042969 127.82161377 91.81335937 126.83072754 91.10546875 125.80981445 C89.72392915 123.81660206 88.3428961 121.82303845 86.96240234 119.82910156 C85.15447367 117.22269731 83.33858399 114.62208428 81.51953125 112.0234375 C80.51287406 110.57822723 79.50635331 109.1329219 78.5 107.6875 C78.03746826 107.03048096 77.57493652 106.37346191 77.09838867 105.6965332 C74 101.22711207 74 101.22711207 74 99 C73.34 99 72.68 99 72 99 C71.75032471 99.70237793 71.50064941 100.40475586 71.2434082 101.12841797 C69.84220446 104.36442001 68.0985769 107.03573561 66.10546875 109.9453125 C65.72311569 110.50904572 65.34076263 111.07277893 64.94682312 111.65359497 C62.83698553 114.75650217 60.6916041 117.83220858 58.52197266 120.89355469 C54.59447296 126.47099247 50.91626813 131.73129464 48.29296875 138.0703125 C45.79158586 143.69484769 43.73901134 148.21374512 38 151 C24.79147626 153.81774252 10.33563748 152.13029389 -3 151 C-1.83662848 147.86871973 -0.64964223 145.24862846 1.3984375 142.609375 C2.10794556 141.6824585 2.10794556 141.6824585 2.83178711 140.73681641 C3.34104736 140.08116699 3.85030762 139.42551758 4.375 138.75 C8.6763063 133.11676434 12.87281274 127.43140609 16.9375 121.625 C21.06293198 115.74030182 25.22473861 109.88505683 29.4375 104.0625 C30.23559082 102.95841797 30.23559082 102.95841797 31.04980469 101.83203125 C33.90600961 97.8838997 36.77031494 93.94179435 39.640625 90.00390625 C40.23431885 89.18720459 40.8280127 88.37050293 41.43969727 87.52905273 C42.57830149 85.96293515 43.7192979 84.39855307 44.86303711 82.83618164 C45.37616455 82.12969482 45.88929199 81.42320801 46.41796875 80.6953125 C46.86938232 80.07672363 47.3207959 79.45813477 47.78588867 78.82080078 C49.03682722 76.94477029 50.03494153 75.03575361 51 73 C50.6690332 72.54375244 50.33806641 72.08750488 49.99707031 71.61743164 C42.41963911 61.16521796 34.91004224 50.66906106 27.48388672 40.10888672 C25.49226697 37.2784143 23.49624627 34.45106164 21.49975586 31.62402344 C20.50659574 30.21746426 19.51391328 28.81056767 18.52172852 27.40332031 C15.90581361 23.69374363 13.28238063 19.98977108 10.6484375 16.29296875 C10.10058594 15.52210938 9.55273438 14.75125 8.98828125 13.95703125 C7.93845819 12.48016152 6.88648563 11.00481663 5.83203125 9.53125 C5.35894531 8.86480469 4.88585938 8.19835937 4.3984375 7.51171875 C3.98255371 6.92865967 3.56666992 6.34560059 3.13818359 5.74487305 C1.92963373 3.89212619 0.95240875 1.99480673 0 0 Z " fill="#FCFCFC" transform="translate(1742,626)"/>
<path d="M0 0 C6.71967765 5.73010381 6.71967765 5.73010381 9 9 C8.66079005 12.80364102 6.72784476 14.65832637 4.10546875 17.29296875 C2.91920898 18.4850293 2.91920898 18.4850293 1.70898438 19.70117188 C0.87689453 20.52166016 0.04480469 21.34214844 -0.8125 22.1875 C-2.04323242 23.43563477 -2.04323242 23.43563477 -3.29882812 24.70898438 C-4.09353516 25.49982422 -4.88824219 26.29066406 -5.70703125 27.10546875 C-6.4338208 27.82887451 -7.16061035 28.55228027 -7.90942383 29.29760742 C-10.0296303 31.02412847 -11.29541439 31.73369124 -14 32 C-15.5703125 30.77734375 -15.5703125 30.77734375 -17.125 28.9375 C-26.45615299 19.03424672 -39.1455392 14.91495755 -52.5625 14.5 C-65.09163875 14.90249047 -77.14143519 19.01153813 -86.0625 28.1015625 C-96.62303183 40.98359055 -99.36470478 54.76342483 -98 71 C-95.94017007 82.31736104 -90.44828007 94.02004223 -81 101 C-67.34868379 108.86605865 -53.96290861 111.23188593 -38.3359375 108.31640625 C-29.34396744 105.51658095 -21.94163899 100.24747509 -15 94 C-14.67 93.34 -14.34 92.68 -14 92 C-10.51345524 93.4841373 -8.35808928 95.46214052 -5.75 98.1875 C-2.18194522 101.84401894 1.48820848 105.27174179 5.37109375 108.58984375 C6.62607573 109.67629098 7.82625655 110.82625655 9 112 C8.69690644 117.06599229 4.42327952 120.09970584 1.00390625 123.40234375 C-19.29890128 140.95938798 -43.40462868 142.40117969 -69 141 C-83.51871347 139.47084898 -98.09028831 131.44758538 -109 122 C-110.2375 121.0409375 -110.2375 121.0409375 -111.5 120.0625 C-125.19352225 108.76534415 -132.7468118 89.19099143 -135 72 C-136.41851592 50.03635838 -132.32449408 29.14839569 -117.75390625 11.9375 C-117.17511719 11.298125 -116.59632812 10.65875 -116 10 C-115.43152344 9.34 -114.86304688 8.68 -114.27734375 8 C-86.14100696 -22.58557205 -32.14696626 -24.96851748 0 0 Z " fill="#FCFCFC" transform="translate(1448,639)"/>
<path d="M0 0 C43.23 0 86.46 0 131 0 C131 9.24 131 18.48 131 28 C115.16 28 99.32 28 83 28 C83 68.59 83 109.18 83 151 C71.45 151 59.9 151 48 151 C48 110.41 48 69.82 48 28 C32.16 28 16.32 28 0 28 C0 18.76 0 9.52 0 0 Z " fill="#FEFEFE" transform="translate(1174,626)"/>
<path d="M0 0 C5.44607514 4.42245153 9.37928754 8.61238275 10.203125 15.7265625 C10.56933135 26.38087843 8.25179692 33.65238969 1.04296875 41.4921875 C-3.28575397 45.39338205 -8.22553444 48.43438297 -13.171875 51.48828125 C-8.7993452 57.77285922 -3.79319116 63.05328089 1.703125 68.36328125 C3.24667213 69.85605381 4.78598686 71.35321961 6.3203125 72.85546875 C6.99433105 73.50628418 7.66834961 74.15709961 8.36279297 74.82763672 C9.828125 76.48828125 9.828125 76.48828125 9.828125 78.48828125 C15.80352409 73.65105342 17.02903507 64.54428643 18.828125 57.48828125 C23.67512345 58.3750323 28.17951378 59.89248934 32.828125 61.48828125 C32.39633272 68.47356607 30.78473314 73.55868421 27.703125 79.80078125 C26.93983341 81.35416899 26.18675328 82.91262737 25.4453125 84.4765625 C25.11128418 85.15243408 24.77725586 85.82830566 24.43310547 86.5246582 C23.68290574 88.95962852 23.87367081 90.14013099 24.828125 92.48828125 C26.25792163 93.75560099 27.69576418 95.01740407 29.203125 96.19140625 C31.60006659 98.10435002 33.69206227 100.29288344 35.828125 102.48828125 C36.488125 103.14828125 37.148125 103.80828125 37.828125 104.48828125 C37.57141774 108.36373281 35.31753167 110.4838423 32.765625 113.23828125 C32.03214844 114.0375 31.29867188 114.83671875 30.54296875 115.66015625 C29.69412109 116.56507813 29.69412109 116.56507813 28.828125 117.48828125 C23.53800376 113.07984688 18.64004072 108.41268331 13.828125 103.48828125 C10.705396 104.91923833 8.21946288 106.694683 5.515625 108.80078125 C-7.60412475 117.94253108 -22.41324849 119.48105901 -37.8828125 116.859375 C-47.1340992 114.40921237 -55.88432996 109.5053323 -61.234375 101.36328125 C-65.54873803 93.77651456 -66.17526462 86.04445819 -65.171875 77.48828125 C-61.37010972 65.1250603 -52.03917647 56.59283991 -41.0078125 50.44921875 C-40.09902344 49.97355469 -40.09902344 49.97355469 -39.171875 49.48828125 C-39.54699219 49.02679687 -39.92210937 48.5653125 -40.30859375 48.08984375 C-48.319993 37.87884118 -52.33358873 28.55335158 -51.171875 15.48828125 C-49.07994802 7.70684586 -42.69184703 1.62787209 -35.984375 -2.44921875 C-25.35645102 -6.46421225 -9.55559864 -6.65110913 0 0 Z " fill="#C2C2C2" transform="translate(1937.171875,849.51171875)"/>
<path d="M0 0 C69.63793103 0 69.63793103 0 82.34765625 11.0390625 C92.17015636 21.43071682 94.67597109 32.33994677 94.4140625 46.26171875 C93.89887543 55.4294541 89.73661116 64.73338496 83 71 C72.7948843 79.15581254 61.59582311 82.17566471 48.76171875 82.09765625 C47.88095169 82.0962413 47.00018463 82.09482635 46.09272766 82.09336853 C43.29094997 82.08778937 40.48925338 82.07524071 37.6875 82.0625 C35.78320428 82.05748231 33.87890731 82.05291987 31.97460938 82.04882812 C27.31635017 82.03867941 22.65826545 82.01909995 18 82 C18 94.54 18 107.08 18 120 C12.06 120 6.12 120 0 120 C0 80.4 0 40.8 0 0 Z " fill="#C1C1C1" transform="translate(1176,846)"/>
<path d="M0 0 C9.47572031 6.87588369 16.25841604 15.6575604 19.1875 27.1875 C20.65955886 42.9307339 20.06936424 56.51866071 10.5 69.5625 C2.57385953 78.67164652 -7.11554411 84.30630914 -19.26806641 85.41064453 C-34.06109218 86.2776251 -45.2250273 84.76672898 -57.234375 75.51953125 C-67.46740522 66.26329028 -72.1998985 54.94895334 -73.05078125 41.390625 C-73.21154458 32.8278625 -72.70348657 26.0058375 -68.8125 18.1875 C-68.38839844 17.32511719 -67.96429687 16.46273437 -67.52734375 15.57421875 C-61.62106509 4.73233118 -51.82130312 -2.85980578 -39.92895508 -6.36816406 C-26.41299907 -9.20575086 -11.67212185 -7.26828289 0 0 Z " fill="#C2C3C2" transform="translate(2258.8125,880.8125)"/>
<path d="M0 0 C15 0 15 0 17.94140625 2.4375 C18.74384766 4.2009375 18.74384766 4.2009375 19.5625 6 C20.25599367 7.39088338 20.95284657 8.78009493 21.65234375 10.16796875 C22.01827637 10.93931152 22.38420898 11.7106543 22.76123047 12.50537109 C25.1194457 17.25433508 27.91734945 21.75700062 30.625 26.3125 C31.83202235 28.37869442 33.03639317 30.4464398 34.23828125 32.515625 C34.85268066 33.57330078 35.46708008 34.63097656 36.10009766 35.72070312 C39.34883816 41.32814112 42.57952644 46.94596248 45.8125 52.5625 C49.95509628 59.75619184 54.10838557 66.94147905 58.375 74.0625 C58.73827393 74.669729 59.10154785 75.27695801 59.47583008 75.90258789 C61.03405445 78.60358552 61.03405445 78.60358552 63 81 C63.44315552 80.1810022 63.44315552 80.1810022 63.89526367 79.34545898 C71.23619609 65.79437657 78.72335548 52.33464996 86.33691406 38.93505859 C88.61381075 34.91673035 90.8727145 30.88840068 93.13061523 26.859375 C94.76732089 23.95516686 96.42740482 21.06531248 98.08984375 18.17578125 C100.19869423 14.49286056 102.12818514 10.79336294 103.84204102 6.91088867 C105.24432226 4.40163051 107.18425402 2.22841553 109 0 C113.95 0 118.9 0 124 0 C124 39.27 124 78.54 124 119 C118.72 119 113.44 119 108 119 C108 91.28 108 63.56 108 35 C107.34 35 106.68 35 106 35 C105.63648437 36.25876953 105.63648437 36.25876953 105.265625 37.54296875 C103.84211862 41.43125007 101.89931919 44.79849311 99.75 48.3125 C96.04242277 54.48812475 92.45196266 60.71642117 88.95288086 67.01269531 C87.17776329 70.20501019 85.3866709 73.38796895 83.59375 76.5703125 C81.18582904 80.85062655 78.84178178 85.15862761 76.53125 89.4921875 C75.4176904 91.51618857 74.30314869 93.5396497 73.1875 95.5625 C72.69725342 96.51471436 72.20700684 97.46692871 71.7019043 98.44799805 C68.32591915 104.45553757 68.32591915 104.45553757 64.82275391 105.89404297 C62.12023034 106.19306722 60.51868384 106.03501319 58 105 C55.3194843 102.36533472 53.73274871 99.31035313 52 96 C51.02257136 94.31019141 50.04337309 92.6214053 49.0625 90.93359375 C48.03869131 89.10322358 47.01798528 87.27111533 46 85.4375 C39.14825833 73.20367429 32.08854627 61.09767339 25 49 C21.535 43.06 21.535 43.06 18 37 C17.67 64.06 17.34 91.12 17 119 C11.39 119 5.78 119 0 119 C0 79.73 0 40.46 0 0 Z " fill="#C3C4C3" transform="translate(2039,846)"/>
<path d="M0 0 C11.88 0 23.76 0 36 0 C36 50.16 36 100.32 36 152 C24.12 152 12.24 152 0 152 C0 101.84 0 51.68 0 0 Z " fill="#FAFAFA" transform="translate(1480,625)"/>
<path d="M0 0 C12.74517191 6.59618546 20.2420407 15.80751384 24.671875 29.3828125 C26.29079904 35.85850864 25.671875 42.7078177 25.671875 49.3828125 C2.241875 49.3828125 -21.188125 49.3828125 -45.328125 49.3828125 C-41.64895081 59.50054153 -38.97920628 65.85964194 -30.015625 71.3828125 C-21.35344434 75.29604878 -9.41588054 74.96260394 -0.578125 71.6953125 C3.36498261 69.79197855 6.5013579 67.38646028 9.671875 64.3828125 C17.15479072 70.53315419 17.15479072 70.53315419 19.671875 74.3828125 C16.85290336 80.92282671 10.79735462 84.10173721 4.421875 86.6953125 C-6.79400207 90.92805592 -22.31760505 91.6832922 -33.703125 87.7578125 C-36.1171875 86.64453125 -36.1171875 86.64453125 -38.328125 85.3828125 C-39.11960937 84.93550781 -39.91109375 84.48820313 -40.7265625 84.02734375 C-52.24189162 76.89243052 -58.48034583 67.53753958 -62.203125 54.5078125 C-65.22392839 40.65191193 -63.30411115 28.70732356 -56.078125 16.5703125 C-43.85231207 -1.4194672 -20.24362569 -8.17750981 0 0 Z " fill="#C1C1C1" transform="translate(2444.328125,876.6171875)"/>
<path d="M0 0 C1.2384668 -0.01836914 1.2384668 -0.01836914 2.50195312 -0.03710938 C14.18662632 -0.06473272 24.31717498 3.7895902 33.0625 11.6875 C44.10057006 23.43109619 44.8125 36.38516584 44.8125 52.1875 C21.3825 52.1875 -2.0475 52.1875 -26.1875 52.1875 C-21.46895903 64.51937828 -21.46895903 64.51937828 -12.125 72.4375 C-10.83916016 73.18773437 -10.83916016 73.18773437 -9.52734375 73.953125 C-2.6882455 77.56106331 6.25517588 77.14190433 13.8125 76.1875 C19.58223525 74.28829548 24.68877965 71.71950949 28.8125 67.1875 C32.25678265 68.63531793 34.17380962 70.46444609 36.5625 73.3125 C37.17609375 74.03695312 37.7896875 74.76140625 38.421875 75.5078125 C38.88078125 76.06210937 39.3396875 76.61640625 39.8125 77.1875 C33.43127899 85.24322581 26.18132699 90.46635473 15.8125 92.1875 C12.2521417 92.4237357 8.69247808 92.41838424 5.125 92.4375 C3.71057617 92.4684375 3.71057617 92.4684375 2.26757812 92.5 C-10.89221919 92.57235627 -21.42507631 87.91002782 -31 78.9375 C-35.23802629 74.50479406 -37.86288324 69.82632941 -40.1875 64.1875 C-40.71537109 62.98867188 -40.71537109 62.98867188 -41.25390625 61.765625 C-45.06988831 51.22776659 -44.56518902 37.26495865 -40.5078125 26.89453125 C-34.35410835 14.27761712 -25.22664717 6.16802671 -12.1875 1.1875 C-8.094735 -0.176755 -4.28627047 0.00326947 0 0 Z " fill="#C2C2C2" transform="translate(1618.1875,873.8125)"/>
<path d="M0 0 C0.94166016 -0.00773438 1.88332031 -0.01546875 2.85351562 -0.0234375 C12.22138572 0.00263869 21.80061937 1.44187973 28.890625 8.078125 C38.46064356 18.61318745 39.24063094 29.12911015 39.1328125 42.8125 C39.12907591 44.2135396 39.12623199 45.61458184 39.12423706 47.015625 C39.1166514 50.67839956 39.09704737 54.34101202 39.0748291 58.00372314 C39.05426062 61.75115772 39.04521197 65.49861883 39.03515625 69.24609375 C39.0137959 76.58081114 38.97865603 83.91536208 38.9375 91.25 C33.6575 91.25 28.3775 91.25 22.9375 91.25 C22.4425 86.795 22.4425 86.795 21.9375 82.25 C21.47601562 82.72050781 21.01453125 83.19101562 20.5390625 83.67578125 C12.52889348 91.32185168 5.13495955 92.48431288 -5.625 92.625 C-6.41624268 92.63909912 -7.20748535 92.65319824 -8.02270508 92.66772461 C-17.46105296 92.59046531 -25.14006781 89.70151844 -32.0625 83.25 C-38.3144786 75.35276388 -39.09567765 67.04320516 -38.0625 57.25 C-36.1671639 50.89234348 -32.35747783 46.83748032 -26.65576172 43.56567383 C-16.50160082 38.41402884 -5.94371049 38.88377298 5.125 39.0625 C6.76105533 39.07758109 8.39712417 39.09126341 10.03320312 39.10351562 C14.00164197 39.13623417 17.96941786 39.18782435 21.9375 39.25 C21.82601527 37.50838181 21.700959 35.76762944 21.5703125 34.02734375 C21.46807373 32.5731604 21.46807373 32.5731604 21.36376953 31.08959961 C20.71565032 26.7721457 19.01140746 23.34458397 15.9375 20.25 C10.18176453 16.09431455 5.62390512 15.60764939 -1.375 15.75 C-2.77613037 15.76595215 -2.77613037 15.76595215 -4.20556641 15.78222656 C-10.84155755 15.96568878 -16.27800598 16.82557954 -22.0625 20.25 C-22.76890625 20.6315625 -23.4753125 21.013125 -24.203125 21.40625 C-25.84676158 22.31219142 -27.45936454 23.27417842 -29.0625 24.25 C-30.09822896 22.50877451 -31.1156252 20.75663405 -32.125 19 C-32.69347656 18.02546875 -33.26195312 17.0509375 -33.84765625 16.046875 C-35.0625 13.25 -35.0625 13.25 -35.15234375 11.1171875 C-33.41058368 8.13309678 -30.58016594 7.04581771 -27.5625 5.625 C-26.9746875 5.3259375 -26.386875 5.026875 -25.78125 4.71875 C-17.41062936 0.64168047 -9.21170255 -0.0759728 0 0 Z " fill="#C2C3C2" transform="translate(1322.0625,873.75)"/>
<path d="M0 0 C5.61 0 11.22 0 17 0 C17.33 25.74 17.66 51.48 18 78 C22.62 73.38 27.24 68.76 32 64 C36.2734375 60.30859375 36.2734375 60.30859375 38.11621094 58.75341797 C40.47287882 56.55984763 42.50949934 54.16940089 44.6015625 51.72265625 C58.56420404 35.74888321 58.56420404 35.74888321 67.26171875 34.6328125 C72.58354791 34.4696572 77.77989621 34.96837387 83 36 C77.24885462 42.95992471 70.8581673 49.19819005 64.43164062 55.52929688 C55.58156731 64.22330721 55.58156731 64.22330721 48 74 C54.85858758 83.37293741 61.74091349 92.72371339 68.8125 101.9375 C69.61300781 102.98091553 69.61300781 102.98091553 70.4296875 104.04541016 C71.46373512 105.3926795 72.49791013 106.73985108 73.53222656 108.08691406 C75.75895387 110.98921532 77.9793198 113.89606138 80.1875 116.8125 C80.88230469 117.72644531 81.57710937 118.64039063 82.29296875 119.58203125 C83.77562311 121.68217553 84.88656317 123.69552963 86 126 C68.88585031 127.94309123 68.88585031 127.94309123 62.8671875 123.890625 C60.76159972 121.31944521 58.91401544 118.72188522 57.18798828 115.8828125 C55.45730621 113.13989838 53.47844851 110.6086011 51.50292969 108.0390625 C49.95313922 106.02037099 48.43164072 103.98337627 46.91796875 101.9375 C44.21013151 98.28044077 41.48343048 94.63795149 38.75 91 C37.5 89.33333333 36.25 87.66666667 35 86 C28.11097525 88.97673909 21.48205634 94.28441267 18 101 C16.13794364 109.18469091 16.6039866 117.67073449 17 126 C11.39 126 5.78 126 0 126 C0 84.42 0 42.84 0 0 Z " fill="#C3C4C3" transform="translate(1484,839)"/>
<path d="M0 0 C-0.58107632 3.7602985 -1.65199496 6.53035032 -3.5625 9.8125 C-4.01753906 10.60269531 -4.47257812 11.39289062 -4.94140625 12.20703125 C-5.46541016 13.09455078 -5.46541016 13.09455078 -6 14 C-7.2375 13.566875 -8.475 13.13375 -9.75 12.6875 C-26.5790533 6.94246832 -26.5790533 6.94246832 -43.5625 9.8125 C-46.08875411 11.23046199 -48.16192346 12.74616805 -50 15 C-50.63821123 20.45921932 -50.63821123 20.45921932 -48.5625 25.3125 C-42.23617485 29.47861656 -34.52727371 30.5799551 -27.1875 31.875 C-16.32400003 33.95646063 -6.56328507 35.98161842 0.6953125 44.9375 C4.38480551 50.76999194 4.75819543 56.25021144 4 63 C1.87230904 70.12886147 -1.62756216 75.75487724 -8.0625 79.625 C-16.94520223 84.16157368 -25.85380669 85.56181107 -35.75 85.5 C-36.79478516 85.49572998 -37.83957031 85.49145996 -38.91601562 85.48706055 C-51.02121252 85.22256312 -61.06117634 82.09915976 -71 75 C-69.50829734 70.0276578 -67.39542583 65.58154261 -65 61 C-61.23395177 62.41226809 -57.71412248 64.13179599 -54.16015625 66 C-47.68965404 68.9953862 -42.09684422 69.33593219 -35.0625 69.3125 C-33.61713867 69.33666992 -33.61713867 69.33666992 -32.14257812 69.36132812 C-25.54802572 69.36583568 -20.08934829 68.8900355 -15.0625 64.1875 C-13.58989042 61.15565674 -13.45578866 59.33329447 -14 56 C-18.67192696 49.30357136 -26.12309482 48.50482617 -33.67578125 47.140625 C-58.00556245 42.71618607 -58.00556245 42.71618607 -65 33 C-68.70297635 26.65204055 -68.92047937 20.23233792 -68 13 C-65.82901013 6.50632806 -61.69227444 1.69517252 -56 -2 C-55.26136719 -2.48726562 -54.52273438 -2.97453125 -53.76171875 -3.4765625 C-37.57361182 -12.06225477 -15.55515372 -8.06005544 0 0 Z " fill="#C2C2C2" transform="translate(1812,881)"/>
<path d="M0 0 C-0.53484401 5.34844008 -2.46690767 9.35796103 -5 14 C-9.20831784 13.3078948 -12.95035729 11.93108281 -16.9375 10.4375 C-25.60708749 7.41187934 -35.05777867 5.749602 -43.6875 9.8125 C-47.16962042 12.09166056 -47.16962042 12.09166056 -50 15 C-50.63821123 20.45921932 -50.63821123 20.45921932 -48.5625 25.3125 C-42.38846443 29.3783283 -34.78406206 30.57045029 -27.625 31.9375 C-5.35347897 36.46370371 -5.35347897 36.46370371 1.3125 45.84765625 C4.89410896 52.10303579 4.67552547 58.13991132 3.375 65.0625 C1.68863318 71.01228715 -2.10739299 75.44385646 -6.8125 79.3125 C-20.56429835 86.59286383 -39.78634024 87.87798425 -54.63891602 83.4621582 C-60.59164669 81.38420775 -65.87874901 78.65803642 -71 75 C-69.02 70.38 -67.04 65.76 -65 61 C-61.47416391 62.41033444 -58.10781927 63.87646206 -54.6875 65.5 C-44.23307749 70.21283143 -33.19079113 72.10436651 -21.875 68.8125 C-18.12028627 67.31620812 -15.94916479 65.64409069 -14 62 C-13.25 59 -13.25 59 -14 56 C-18.67192696 49.30357136 -26.12309482 48.50482617 -33.67578125 47.140625 C-56.97668561 42.90510544 -56.97668561 42.90510544 -64.125 34.9375 C-68.65475772 27.84087957 -68.7311308 21.2674021 -68 13 C-66.11551604 5.53362685 -60.26148082 0.5476244 -53.84375 -3.2890625 C-38.06075765 -11.47501749 -15.19718822 -8.08508946 0 0 Z " fill="#C2C3C3" transform="translate(2619,881)"/>
<path d="M0 0 C5.79567559 3.40093463 11.40144863 8.27891324 15 14 C13.70077005 17.89768986 12.05324838 18.57247741 8.625 20.75 C7.15933594 21.70132813 7.15933594 21.70132813 5.6640625 22.671875 C3 24 3 24 0 23 C-1.2890625 21.51171875 -1.2890625 21.51171875 -2.625 19.6875 C-7.14325342 14.34474778 -11.69046465 12.3451881 -18.6328125 11.62109375 C-26.02576949 11.39327897 -31.89790992 11.63266869 -38 16 C-38.886875 16.556875 -39.77375 17.11375 -40.6875 17.6875 C-47.08760215 24.08760215 -50.04108923 32.50349224 -50.25 41.4375 C-50.03716391 50.60197167 -47.82698337 58.00384665 -41.328125 64.73046875 C-35.47067884 69.97884418 -30.11078686 72.55559102 -22.125 72.4375 C-21.41754639 72.43065186 -20.71009277 72.42380371 -19.98120117 72.41674805 C-12.56298687 72.18842952 -8.53641535 70.26071803 -3.125 65.4375 C-0.90406964 62.99547709 -0.90406964 62.99547709 1 60 C5.97209562 61.76429199 10.43438061 64.3939166 15 67 C12.64909004 75.35879096 5.78110954 80.55980721 -1.375 84.7734375 C-12.07201973 89.77174731 -27.94389949 90.18803152 -39.1875 86.5 C-52.1204467 80.58364397 -60.3303907 71.47015324 -66.0546875 58.67578125 C-70.29083929 46.68502102 -69.17170106 31.45707225 -64 20 C-57.49040043 8.28272078 -48.46432667 1.94346945 -36.328125 -3.11328125 C-25.05348589 -6.11720505 -10.37241012 -5.35242958 0 0 Z " fill="#C2C3C2" transform="translate(1450,878)"/>
<path d="M0 0 C5.94 0 11.88 0 18 0 C23.15523221 12.06892286 28.26068154 24.15503096 33.22265625 36.3046875 C33.58165009 37.1831987 33.94064392 38.0617099 34.31051636 38.96684265 C36.10904402 43.37053376 37.90292482 47.77605747 39.69140625 52.18383789 C40.35798154 53.81921043 41.02464419 55.45454735 41.69140625 57.08984375 C41.996194 57.84502289 42.30098175 58.60020203 42.61500549 59.37826538 C43.88157734 62.4776712 45.13597349 65.20396024 47 68 C54.84492207 49.93995907 62.41997519 31.78148342 69.83007812 13.53881836 C70.16650833 12.71314362 70.50293854 11.88746887 70.8495636 11.03677368 C71.48650487 9.47343312 72.12135149 7.90923708 72.75382996 6.34408569 C74.88735517 1.11264483 74.88735517 1.11264483 76 0 C78.86267567 -0.07325168 81.700719 -0.09238205 84.5625 -0.0625 C85.36880859 -0.05798828 86.17511719 -0.05347656 87.00585938 -0.04882812 C89.00393756 -0.03700518 91.00197783 -0.01906914 93 0 C90.99955001 6.30979095 88.67343282 12.40503523 86.078125 18.4921875 C85.51220139 19.83076309 85.51220139 19.83076309 84.93484497 21.19638062 C83.71002741 24.09073576 82.48020639 26.98293167 81.25 29.875 C80.40035932 31.87849844 79.55091458 33.88207999 78.70166016 35.88574219 C76.55359546 40.95031226 74.40060185 46.01276878 72.2454834 51.07434082 C71.04849243 53.88609056 69.85269496 56.69834482 68.65722656 59.51074219 C66.89260829 63.66087894 65.12485449 67.80966316 63.35388184 71.95709229 C62.70259413 73.48265191 62.05195663 75.0084893 61.40197754 76.53460693 C60.50744348 78.63351723 59.60972756 80.73103436 58.7109375 82.828125 C58.20868652 84.0027832 57.70643555 85.17744141 57.18896484 86.38769531 C56 89 56 89 55 90 C53.65732587 90.08631874 52.31025678 90.10706473 50.96484375 90.09765625 C50.15595703 90.09443359 49.34707031 90.09121094 48.51367188 90.08789062 C47.66353516 90.07951172 46.81339844 90.07113281 45.9375 90.0625 C45.08349609 90.05798828 44.22949219 90.05347656 43.34960938 90.04882812 C41.23304337 90.03700373 39.11651315 90.01906769 37 90 C36.63986816 89.13463623 36.27973633 88.26927246 35.90869141 87.37768555 C28.45279438 69.46405631 20.98634753 51.5548225 13.50042725 33.65371704 C12.71333445 31.7711931 11.92658691 29.88852477 11.14019775 28.00570679 C10.02805071 25.34323233 8.91458069 22.68131481 7.80078125 20.01953125 C7.31251106 18.84960129 7.31251106 18.84960129 6.81437683 17.65603638 C4.86995296 13.01407136 2.84894145 8.417455 0.74137878 3.8469696 C0 2 0 2 0 0 Z " fill="#C3C3C3" transform="translate(2283,875)"/>
<path d="M0 0 C2.109375 1.1328125 2.109375 1.1328125 4.0625 2.375 C4.68640625 2.76429688 5.3103125 3.15359375 5.953125 3.5546875 C11.68045668 7.76303121 14.93835332 13.68731559 17.0625 20.375 C18.40992775 30.77385084 17.47313497 40.72476799 11.5546875 49.6484375 C7.25757996 55.02481857 2.15611274 59.67451579 -4.87255859 60.64111328 C-13.30501813 61.33210917 -20.79885901 61.31713607 -27.9375 56.375 C-29.2678125 55.50875 -29.2678125 55.50875 -30.625 54.625 C-37.85981871 47.58571694 -40.95697475 38.44817136 -41.4375 28.5 C-41.21297566 19.79968172 -37.78283011 11.79528061 -31.9375 5.375 C-29.46484375 3.609375 -29.46484375 3.609375 -26.875 2.125 C-26.01777344 1.62484375 -25.16054687 1.1246875 -24.27734375 0.609375 C-17.20117588 -3.12362842 -7.34978346 -3.05923629 0 0 Z " fill="#020403" transform="translate(2243.9375,890.625)"/>
<path d="M0 0 C5.589375 -0.04125 11.17875 -0.0825 16.9375 -0.125 C19.55546509 -0.15231201 19.55546509 -0.15231201 22.22631836 -0.18017578 C45.35342417 -0.32235261 45.35342417 -0.32235261 53.76171875 7.67578125 C60.75413363 15.58245861 60.84501365 22.68390286 60.24267578 32.94091797 C59.73722665 37.22960804 57.99107554 40.00092693 55 43 C54.175 43.9075 53.35 44.815 52.5 45.75 C42.34734123 53.32675333 29.13656403 52.49708253 17.1875 52.25 C11.515625 52.1675 5.84375 52.085 0 52 C0 34.84 0 17.68 0 0 Z " fill="#050606" transform="translate(1942,654)"/>
<path d="M0 0 C8.848125 -0.0928125 8.848125 -0.0928125 17.875 -0.1875 C19.71562012 -0.21481201 21.55624023 -0.24212402 23.45263672 -0.27026367 C34.2913238 -0.36409636 44.19008501 -0.17086104 53 7 C59.30915789 13.52004896 60.44165779 18.64314293 60.43603516 27.49316406 C60.23736857 35.43643158 57.71619813 39.9442771 52.5 45.8125 C42.25976204 53.27670225 29.16385737 52.4976469 17.1875 52.25 C11.515625 52.1675 5.84375 52.085 0 52 C0 34.84 0 17.68 0 0 Z " fill="#060707" transform="translate(2097,654)"/>
<path d="M0 0 C5.878125 -0.0825 11.75625 -0.165 17.8125 -0.25 C20.55977417 -0.30462402 20.55977417 -0.30462402 23.36254883 -0.36035156 C33.43381227 -0.47674731 42.59556811 -0.22955539 50.875 6.25 C51.57625 7.1575 52.2775 8.065 53 9 C53.46277344 9.51820313 53.92554688 10.03640625 54.40234375 10.5703125 C59.40314093 16.97022468 58.74871052 24.24063646 58 32 C56.9985707 38.16264187 53.98958372 41.64815423 49.19140625 45.52734375 C45.89909908 47.73982112 42.80171911 48.85948427 39 50 C38.42862305 50.18618896 37.85724609 50.37237793 37.26855469 50.56420898 C33.84390344 51.22208699 30.42623279 51.12182263 26.953125 51.09765625 C26.26911621 51.09664917 25.58510742 51.09564209 24.88037109 51.09460449 C22.33689689 51.0893913 19.79344668 51.07543006 17.25 51.0625 C8.71125 51.0315625 8.71125 51.0315625 0 51 C0 34.17 0 17.34 0 0 Z " fill="#020303" transform="translate(1194,862)"/>
<path d="M0 0 C5.28 0 10.56 0 16 0 C16.33 4.29 16.66 8.58 17 13 C18.32 11.35 19.64 9.7 21 8 C29.64322099 1.5863536 37.39064655 -0.29066722 48 0 C48 5.28 48 10.56 48 16 C44.7825 16.3403125 44.7825 16.3403125 41.5 16.6875 C34.07212393 17.78071563 29.21471652 19.28793944 24.2578125 25.01171875 C18.05221322 33.51843738 17.69905165 42.56142977 17.5859375 52.81640625 C17.56657135 53.91347397 17.5472052 55.01054169 17.5272522 56.14085388 C17.46789209 59.61465901 17.42124616 63.08849806 17.375 66.5625 C17.3367801 68.93035229 17.29772608 71.29819128 17.2578125 73.66601562 C17.16222661 79.44390122 17.07803593 85.22185181 17 91 C11.39 91 5.78 91 0 91 C0 60.97 0 30.94 0 0 Z " fill="#C0C1C0" transform="translate(1684,874)"/>
<path d="M0 0 C0 5.61 0 11.22 0 17 C-3.2175 17.0928125 -3.2175 17.0928125 -6.5 17.1875 C-14.8709322 17.79568075 -18.9923412 19.9923412 -24.8125 25.8125 C-30.10784697 33.52857701 -30.46062307 40.47882788 -30.51171875 49.59375 C-30.52966995 50.78101685 -30.54762115 51.96828369 -30.56611633 53.19152832 C-30.62003529 56.96098342 -30.6540569 60.73031319 -30.6875 64.5 C-30.72068921 67.06512153 -30.75518035 69.63022657 -30.79101562 72.1953125 C-30.87575165 78.46345101 -30.94265119 84.73155352 -31 91 C-36.61 91 -42.22 91 -48 91 C-48 61.3 -48 31.6 -48 1 C-42.72 1 -37.44 1 -32 1 C-31.67 4.63 -31.34 8.26 -31 12 C-29.72125 10.7625 -28.4425 9.525 -27.125 8.25 C-18.5575017 0.71167077 -11.23164431 -0.52240206 0 0 Z " fill="#C4C4C4" transform="translate(2539,874)"/>
<path d="M0 0 C235.62 0 471.24 0 714 0 C713.3382517 4.63223811 712.68654716 8.52939135 711.41772461 12.93530273 C711.09746811 14.05593613 710.77721161 15.17656952 710.44725037 16.3311615 C709.93002159 18.11436546 709.93002159 18.11436546 709.40234375 19.93359375 C709.04862198 21.16666763 708.69490021 22.39974152 708.33045959 23.67018127 C707.39585385 26.92801987 706.45570362 30.18423227 705.51434326 33.44012451 C704.55239659 36.77095774 703.59576634 40.10331683 702.63867188 43.43554688 C700.76398426 49.95844071 698.88402071 56.47979613 697 63 C696.67 63 696.34 63 696 63 C698.60735318 42.14117457 706.27546768 22.22668086 712 2 C477.04 2 242.08 2 0 2 C0 1.34 0 0.68 0 0 Z " fill="#300000" transform="translate(227,591)"/>
<path d="M0 0 C2 4 2 4 2 6 C1.34 6 0.68 6 0 6 C0 7.32 0 8.64 0 10 C235.29 10 470.58 10 713 10 C714.12429668 17.87007673 714.12429668 17.87007673 712.6875 21.125 C712.26597656 22.11886719 712.26597656 22.11886719 711.8359375 23.1328125 C711.56007813 23.74898437 711.28421875 24.36515625 711 25 C710.608125 25.99 710.21625 26.98 709.8125 28 C709.544375 28.66 709.27625 29.32 709 30 C708 26 708 26 712 12 C476.38 12 240.76 12 -2 12 C-1.34 8.04 -0.68 4.08 0 0 Z " fill="#C73332" transform="translate(229,579)"/>
<path d="M0 0 C2 1 2 1 3.10546875 3.984375 C3.46253906 5.22703125 3.81960938 6.4696875 4.1875 7.75 C4.55230469 8.98234375 4.91710937 10.2146875 5.29296875 11.484375 C6 15 6 15 5 20 C-224.35 20.33 -453.7 20.66 -690 21 C-690 20.01 -690 19.02 -690 18 C-460.98 18 -231.96 18 4 18 C2.68 13.05 1.36 8.1 0 3 C0 2.01 0 1.02 0 0 Z " fill="#B12626" transform="translate(937,484)"/>
<path d="M0 0 C3.02282485 1.90824142 5.43182567 4.32908419 7.93554688 6.85253906 C8.47530151 7.39038025 9.01505615 7.92822144 9.57116699 8.48236084 C10.70989867 9.61973424 11.84611941 10.75962643 12.97998047 11.90185547 C14.70390606 13.63644352 16.43817495 15.36016388 18.17382812 17.08300781 C19.28254245 18.19304462 20.39063576 19.30370213 21.49804688 20.41503906 C22.011698 20.92464172 22.52534912 21.43424438 23.05456543 21.95928955 C26.2821306 25.22861002 28.79466247 28.52716709 31.21679688 32.39941406 C22.49656068 40.81121747 13.37935504 43.82077087 1.35351562 43.67285156 C-5.30668612 43.09226112 -10.7597757 40.96609223 -15.28320312 35.96191406 C-18.9313448 31.08741968 -20.32649654 26.8957457 -20.15429688 20.79785156 C-18.68357693 11.29235635 -11.25490309 5.75318903 -4.03320312 0.33691406 C-1.78320312 -0.60058594 -1.78320312 -0.60058594 0 0 Z " fill="#040504" transform="translate(1908.783203125,909.6005859375)"/>
<path d="M0 0 C5.59240117 5.85251286 7.537219 10.76053303 8.6875 18.8125 C-9.1325 18.8125 -26.9525 18.8125 -45.3125 18.8125 C-45.3125 10.63097002 -43.88948484 7.63354351 -38.48046875 1.85546875 C-26.89172624 -9.00183439 -12.9738358 -8.56762742 0 0 Z " fill="#030504" transform="translate(1638.3125,894.1875)"/>
<path d="M0 0 C4.90191283 4.14710501 8.04796196 8.91423435 10 15 C10 16.65 10 18.3 10 20 C-7.82 20 -25.64 20 -44 20 C-44 12.57273788 -42.11629058 8.44851773 -37.16796875 2.97265625 C-26.18546277 -7.27335031 -12.84336513 -7.58509724 0 0 Z " fill="#030403" transform="translate(2443,893)"/>
<path d="M0 0 C1.50518458 0.02009506 3.01039505 0.03834052 4.515625 0.0546875 C8.17762737 0.09844702 11.83864578 0.16730784 15.5 0.25 C15.52873942 2.3449719 15.54931922 4.44005691 15.56640625 6.53515625 C15.57873291 7.70183838 15.59105957 8.86852051 15.60375977 10.07055664 C15.41926681 15.72385492 13.28979966 18.69629575 9.3125 22.4375 C2.31086771 27.97198528 -4.2703833 28.86770841 -13.14453125 28.66796875 C-19.12098949 27.92352052 -22.58360881 25.40594009 -26.5 21 C-28.29307766 16.06903644 -28.25540525 11.37457727 -26.5 6.4375 C-19.31857339 -1.41718536 -9.72825187 -0.22633773 0 0 Z " fill="#030404" transform="translate(1328.5,924.75)"/>
<path d="M0 0 C4.11234663 2.95245399 4.11234663 2.95245399 5.4375 5.75 C6.32391587 11.28736336 5.58120089 16.01147927 2.8359375 20.8984375 C-0.86769777 25.80213336 -6.84232153 29.6699351 -12.5625 31.75 C-15.72115327 30.58891402 -17.55361324 28.93342968 -19.6875 26.375 C-20.18507813 25.78976562 -20.68265625 25.20453125 -21.1953125 24.6015625 C-25.30909916 19.03032 -25.45871794 13.52142444 -24.5625 6.75 C-20.00720532 -2.75985822 -8.87881555 -3.11537388 0 0 Z " fill="#030504" transform="translate(1926.5625,859.25)"/>
<path d="M0 0 C3.06642773 4.59964159 4.12554907 9.79174549 5.6237793 15.0793457 C6.18722681 17.06153894 6.76397697 19.03953334 7.34179688 21.01757812 C7.69693359 22.26087891 8.05207031 23.50417969 8.41796875 24.78515625 C8.74563232 25.92863525 9.0732959 27.07211426 9.41088867 28.25024414 C10 31 10 31 9 33 C5.82359865 28.12951793 4.37904753 24.07852226 3.4921875 18.33203125 C3.11202849 15.997948 3.11202849 15.997948 1.984375 14.08984375 C0.67171847 11.3030531 0.57476314 8.81303474 0.375 5.75 C0.30023437 4.67234375 0.22546875 3.5946875 0.1484375 2.484375 C0.09945312 1.66453125 0.05046875 0.8446875 0 0 Z " fill="#380505" transform="translate(928,456)"/>
<path d="M0 0 C0.33 0 0.66 0 1 0 C1.37580094 5.1359462 0.1173326 8.35815546 -2 13 C-2.68679942 15.32748694 -3.35761043 17.65986656 -4 20 C-4.33 20.66 -4.66 21.32 -5 22 C-4.01 22.33 -3.02 22.66 -2 23 C-3.65 23.99 -5.3 24.98 -7 26 C-6.41124445 20.10575413 -5.22679399 14.72145059 -3.5 9.0625 C-3.27441406 8.29615234 -3.04882812 7.52980469 -2.81640625 6.74023438 C-1.13972622 1.13972622 -1.13972622 1.13972622 0 0 Z " fill="#BC2F2D" transform="translate(928,639)"/>
<path d="M0 0 C0.33 0 0.66 0 1 0 C1 2.31 1 4.62 1 7 C0.34 7 -0.32 7 -1 7 C-0.938125 8.155 -0.87625 9.31 -0.8125 10.5 C-0.80423657 15.16883898 -2.15110411 18.77008696 -4 23 C-4.391875 23.99 -4.78375 24.98 -5.1875 26 C-5.455625 26.66 -5.72375 27.32 -6 28 C-7.30477141 24.35420395 -6.67424442 22.01329738 -5.56640625 18.359375 C-5.0878418 16.75449219 -5.0878418 16.75449219 -4.59960938 15.1171875 C-4.25736328 14.00601563 -3.91511719 12.89484375 -3.5625 11.75 C-3.22412109 10.62335937 -2.88574219 9.49671875 -2.53710938 8.3359375 C-1.70031011 5.5544639 -0.85431674 2.77613344 0 0 Z " fill="#B52C2B" transform="translate(936,609)"/>
<path d="M0 0 C2.68122322 4.30803282 1.69470501 7.32893446 0.71484375 12.09375 C-0.28371313 16.15345667 -1.54859881 20.08121678 -3 24 C-3.33 24 -3.66 24 -4 24 C-3.28621973 15.86290495 -1.67226118 7.98268072 0 0 Z " fill="#B82D2C" transform="translate(243,516)"/>
<path d="M0 0 C4.44607497 1.77842999 5.9797308 2.64414533 9 6 C6.525 5.01 6.525 5.01 4 4 C4.15597656 4.60328125 4.31195312 5.2065625 4.47265625 5.828125 C4.76462891 7.02695312 4.76462891 7.02695312 5.0625 8.25 C5.25972656 9.03890625 5.45695313 9.8278125 5.66015625 10.640625 C6 13 6 13 5 17 C3.35 11.39 1.7 5.78 0 0 Z " fill="#B43131" transform="translate(920,428)"/>
<path d="M0 0 C0.33 0 0.66 0 1 0 C1.29341888 5.67276511 1.00559652 8.99067246 -2 14 C-3.25127906 10.45332822 -2.72285053 8.27746562 -1.5625 4.75 C-1.27503906 3.85796875 -0.98757813 2.9659375 -0.69140625 2.046875 C-0.46324219 1.37140625 -0.23507812 0.6959375 0 0 Z " fill="#B42C2B" transform="translate(940,595)"/>
<path d="M0 0 C0.33 0 0.66 0 1 0 C0.67 2.31 0.34 4.62 0 7 C0.99 7.33 1.98 7.66 3 8 C0.525 9.485 0.525 9.485 -2 11 C-1.125 3.375 -1.125 3.375 0 0 Z " fill="#AA3231" transform="translate(923,654)"/>
<path d="M0 0 C1.90318884 2.85478326 2.4619099 4.41941308 3.125 7.6875 C3.29257812 8.49574219 3.46015625 9.30398438 3.6328125 10.13671875 C3.75398437 10.75160156 3.87515625 11.36648438 4 12 C3.01 12 2.02 12 1 12 C0.67 8.04 0.34 4.08 0 0 Z " fill="#3D0706" transform="translate(924,442)"/>
</svg>
