<?xml version="1.0" encoding="UTF-8"?>
<svg version="1.1" xmlns="http://www.w3.org/2000/svg" width="2816" height="1536">
<path d="M0 0 C929.28 0 1858.56 0 2816 0 C2816 506.88 2816 1013.76 2816 1536 C1886.72 1536 957.44 1536 0 1536 C0 1029.12 0 522.24 0 0 Z " fill="#FEFEFD" transform="translate(0,0)"/>
<path d="M0 0 C4.43686323 1.77474529 7.99960803 3.8450983 11.89453125 6.51171875 C13.24036189 7.42111337 14.58622869 8.33045446 15.93212891 9.23974609 C16.95237152 9.93266754 16.95237152 9.93266754 17.9932251 10.6395874 C21.03057572 12.6986375 24.08371714 14.7337936 27.13671875 16.76953125 C28.36194224 17.58798684 29.58712026 18.40651051 30.81225586 19.22509766 C46.23950067 29.52708679 61.71498015 39.75409997 77.21212769 49.95059204 C93.38553987 60.59379905 109.50753901 71.31247603 125.59936523 82.07861328 C126.44133957 82.64133942 127.2833139 83.20406555 128.15080261 83.78384399 C129.7057151 84.82313708 131.25998498 85.86339263 132.81343079 86.90487671 C137.48730854 90.02805764 142.216048 93.04821265 147 96 C145.63912538 99.21622595 144.33807003 100.76610974 141.41625977 102.65600586 C140.30070457 103.38780312 140.30070457 103.38780312 139.16261292 104.13438416 C138.34711472 104.65593582 137.53161652 105.17748749 136.69140625 105.71484375 C135.40706947 106.55294334 135.40706947 106.55294334 134.0967865 107.40797424 C132.23607486 108.62104044 130.37263765 109.82993371 128.50683594 111.03515625 C123.46208093 114.29458668 118.43752903 117.58494319 113.41015625 120.87109375 C112.37327667 121.54768036 111.33639709 122.22426697 110.26809692 122.9213562 C99.93743795 129.67135488 89.71338729 136.57439703 79.5 143.5 C62.62467802 154.93146804 45.64573065 166.1979429 28.59960938 177.37304688 C26.86052071 178.51408461 25.12158351 179.65535326 23.3828125 180.796875 C22.56254578 181.33521973 21.74227905 181.87356445 20.89715576 182.42822266 C14.93773963 186.35188317 9.06170745 190.38080704 3.23388672 194.49707031 C1 196 1 196 0 196 C0 177.19 0 158.38 0 139 C-205.92 139 -411.84 139 -624 139 C-624 111.94 -624 84.88 -624 57 C-418.08 57 -212.16 57 0 57 C0 38.19 0 19.38 0 0 Z " fill="#CF2E28" transform="translate(885,491)"/>
<path d="M0 0 C1.28404221 -0.00855011 1.28404221 -0.00855011 2.59402466 -0.01727295 C4.40088691 -0.02667097 6.2077659 -0.0332361 8.01464844 -0.03710938 C10.71581902 -0.0467255 13.41619775 -0.07776137 16.1171875 -0.109375 C27.67126864 -0.18043713 38.57509465 0.83639336 49.8828125 3.203125 C51.47706055 3.53183594 51.47706055 3.53183594 53.10351562 3.8671875 C87.80564041 11.53087275 119.60683409 29.0865456 142.8828125 56.203125 C143.60791016 57.03102539 144.33300781 57.85892578 145.08007812 58.71191406 C147.70020242 63.78609843 147.38054484 68.31841531 147.2734375 73.9453125 C147.26777771 75.06882111 147.26211792 76.19232971 147.25628662 77.34988403 C147.2339565 80.92640391 147.18376396 84.50190963 147.1328125 88.078125 C147.11274326 90.507798 147.09449323 92.93748675 147.078125 95.3671875 C147.03410267 101.31284405 146.96722321 107.25791205 146.8828125 113.203125 C138.5637371 113.45894483 130.24632558 113.65390293 121.92427921 113.77305889 C118.05901967 113.83027574 114.1964657 113.90774452 110.33276367 114.03295898 C106.59775578 114.1532335 102.86533404 114.21839616 99.12853813 114.24677467 C97.70931718 114.26697154 96.29022505 114.30641948 94.872118 114.36615562 C83.78308805 114.81432951 83.78308805 114.81432951 79.05856323 110.8085022 C76.7813173 108.03648372 74.82023147 105.21847082 72.8828125 102.203125 C64.49465041 92.15172688 52.09991801 85.43092742 39.8828125 81.203125 C38.84898437 80.81125 37.81515625 80.419375 36.75 80.015625 C13.28596206 72.31899297 -13.03121531 76.98828079 -34.6171875 87.828125 C-52.98874277 98.36435902 -66.59256641 116.52000134 -72.50683594 136.87719727 C-74.87348888 145.8960383 -75.47335834 154.65123692 -75.4296875 163.953125 C-75.42477295 165.1894165 -75.4198584 166.42570801 -75.41479492 167.69946289 C-75.10003729 192.23280273 -66.60967661 213.91462993 -49.1171875 231.203125 C-48.45976563 231.87085938 -47.80234375 232.53859375 -47.125 233.2265625 C-29.25962642 250.171831 -5.35795768 253.86646928 18.25 253.515625 C26.31066449 253.24292138 33.28389352 251.93398651 40.8828125 249.203125 C42.0996875 248.76742187 43.3165625 248.33171875 44.5703125 247.8828125 C56.56166343 243.15346504 68.85694472 235.4657907 75.70689392 224.20428467 C80.91559744 215.83770695 80.91559744 215.83770695 86.15652466 214.14709473 C90.05873445 213.81721849 93.85900757 213.84900716 97.76171875 214.03125 C99.18367804 214.05367447 100.60573102 214.07073578 102.02781677 214.08270264 C105.74413906 214.12820094 109.45469586 214.24573607 113.16876221 214.37915039 C116.9691364 214.50264039 120.77045706 214.55686528 124.57226562 214.6171875 C132.01172395 214.74530898 139.4464561 214.94966347 146.8828125 215.203125 C147.08694835 222.26438557 147.22628693 229.32487604 147.32226562 236.38842773 C147.36230629 238.78715446 147.41675755 241.1856883 147.48632812 243.58374023 C148.12248821 266.08790327 148.12248821 266.08790327 143.19140625 272.97265625 C140.98193359 275.30834961 140.98193359 275.30834961 138.8828125 277.203125 C137.94003693 278.27812095 137.00284799 279.35807297 136.07421875 280.4453125 C103.48327036 313.08468726 58.94680912 330.06912625 13.01245117 330.58349609 C11.65673717 330.58394868 10.30102072 330.58210936 8.9453125 330.578125 C8.23758698 330.57758118 7.52986145 330.57703735 6.8006897 330.57647705 C-31.4172533 330.4428647 -69.27054429 318.48513981 -99.1171875 294.203125 C-99.67647949 293.75066406 -100.23577148 293.29820312 -100.81201172 292.83203125 C-133.39422356 266.29887557 -154.5870251 228.82277443 -159.5480957 186.83032227 C-163.70089525 143.83416534 -155.49589468 100.6996472 -128.48828125 66.0625 C-124.66616726 61.45329499 -120.68663309 57.02863107 -116.54980469 52.703125 C-115.59968143 51.70831292 -114.6549341 50.7083367 -113.71582031 49.703125 C-85.16785004 19.18838433 -41.86342427 0.22265253 0 0 Z " fill="#022256" transform="translate(708.1171875,656.796875)"/>
<path d="M0 0 C113.19 0 226.38 0 343 0 C339.43338805 3.56661195 336.44918317 6.25405395 332.4375 9.125 C326.42892257 13.57443616 320.89945615 18.40344982 315.5 23.56738281 C314.50518792 24.51750607 313.5052117 25.4622534 312.5 26.40136719 C298.93757406 39.08965239 289.10463692 53.73922992 280.15991211 69.94213867 C278.81900173 72.3211186 277.40501492 74.65830847 276 77 C247.29 77 218.58 77 189 77 C189 158.18 189 239.36 189 323 C160.95 323 132.9 323 104 323 C104 241.82 104 160.64 104 77 C69.68 77 35.36 77 0 77 C0 51.59 0 26.18 0 0 Z " fill="#022256" transform="translate(261,661)"/>
<path d="M0 0 C0 104.94 0 209.88 0 318 C-28.05 318 -56.1 318 -85 318 C-85.24250791 284.74182087 -85.44560807 251.48449976 -85.56171862 218.22570249 C-85.57547638 214.29914841 -85.58971393 210.3725962 -85.60424805 206.44604492 C-85.60713346 205.66434002 -85.61001888 204.88263513 -85.61299173 204.0772422 C-85.66085527 191.42022047 -85.74758397 178.76374836 -85.84868076 166.10705268 C-85.95155245 153.11982066 -86.01264721 140.13287645 -86.03497344 127.14525372 C-86.05006678 119.13096184 -86.0977286 111.11822339 -86.18708114 103.10440976 C-86.25211083 96.95895492 -86.25900678 90.81468386 -86.24418449 84.66893196 C-86.24721384 82.14812272 -86.26913804 79.62725537 -86.31126022 77.10679626 C-86.61468543 58.0163324 -86.61468543 58.0163324 -82.60864735 53.0138073 C-79.75898564 51.16754661 -77.20885713 50.06625415 -74 49 C-72.63096725 48.16377625 -71.28186171 47.29191057 -69.97583008 46.36035156 C-69.36761917 45.95592834 -68.75940826 45.55150513 -68.13276672 45.13482666 C-67.51789902 44.72424011 -66.90303131 44.31365356 -66.26953125 43.890625 C-65.59057297 43.43830505 -64.91161469 42.98598511 -64.21208191 42.5199585 C-62.79099428 41.57279091 -61.37028505 40.62505532 -59.94995117 39.67675781 C-57.83431002 38.26455828 -55.71705166 36.85480956 -53.59960938 35.4453125 C-45.94292605 30.34202369 -38.32871061 25.18234132 -30.75421143 19.95787048 C-24.55988074 15.68791507 -18.32183829 11.4867288 -12.0625 7.3125 C-10.46631836 6.24225586 -10.46631836 6.24225586 -8.83789062 5.15039062 C-7.32678711 4.14202148 -7.32678711 4.14202148 -5.78515625 3.11328125 C-4.88676025 2.51298096 -3.98836426 1.91268066 -3.06274414 1.29418945 C-1 0 -1 0 0 0 Z " fill="#012256" transform="translate(969,666)"/>
<path d="M0 0 C19.42875 -0.061875 19.42875 -0.061875 39.25 -0.125 C43.31731445 -0.14320801 47.38462891 -0.16141602 51.57519531 -0.18017578 C56.59912109 -0.18920898 56.59912109 -0.18920898 58.96209717 -0.19088745 C60.58824768 -0.19392875 62.2143941 -0.20089972 63.84051514 -0.21115112 C84.32797534 -0.33368437 105.23569375 2.47933898 120.8125 17.25 C131.46173826 28.67891463 135.75187715 41.96954987 135.25390625 57.53515625 C134.31877308 70.29612737 130.18198793 82.76829012 121 92 C110.60083829 100.80244003 110.60083829 100.80244003 105 102 C113.32616883 114.59261478 121.68137085 127.15081917 130.44921875 139.44140625 C130.86864746 140.02937988 131.28807617 140.61735352 131.72021484 141.22314453 C132.61821344 142.46992701 133.5256417 143.70994605 134.43994141 144.94482422 C138 149.79104919 138 149.79104919 138 152 C102.66363379 154.66785219 102.66363379 154.66785219 94.07373047 150.62158203 C89.94803633 147.04519291 87.99262649 142.51611958 86.06787109 137.49462891 C84.16479704 133.04890172 81.26976745 129.25338268 78.5 125.3125 C77.52605126 123.85371797 76.5570078 122.39164467 75.59375 120.92578125 C74.73001908 119.61662471 73.86535151 118.30808589 73 117 C72.43893555 115.94562744 71.87787109 114.89125488 71.29980469 113.80493164 C69.22183224 110.68600118 69.22183224 110.68600118 65.60839844 110.22705078 C64.2887207 110.21657715 62.96904297 110.20610352 61.609375 110.1953125 C60.31999023 110.16969238 59.03060547 110.14407227 57.70214844 110.11767578 C55.25083496 110.12130127 55.25083496 110.12130127 52.75 110.125 C47.5525 110.08375 42.355 110.0425 37 110 C37 123.86 37 137.72 37 152 C24.79 152 12.58 152 0 152 C0 101.84 0 51.68 0 0 Z " fill="#032255" transform="translate(1992,657)"/>
<path d="M0 0 C19.8 -0.12375 19.8 -0.12375 40 -0.25 C44.1353125 -0.28641602 48.270625 -0.32283203 52.53125 -0.36035156 C57.6640625 -0.37841797 57.6640625 -0.37841797 60.08300781 -0.3817749 C61.73734875 -0.38783246 63.39167445 -0.40171963 65.04589844 -0.42230225 C85.9292344 -0.66867088 105.93898744 3.26068726 121.37890625 18.3203125 C133.33283911 30.88474275 135.73612675 43.86948747 135.37109375 60.6875 C134.66920107 74.67539677 128.29655205 86.22545761 118.25 95.8125 C104.94363907 106.6336262 87.65451298 110.19362327 70.91015625 110.09765625 C70.07190308 110.09664917 69.2336499 110.09564209 68.36999512 110.09460449 C65.26748264 110.08941048 62.1649898 110.07544948 59.0625 110.0625 C52.111875 110.041875 45.16125 110.02125 38 110 C38 124.19 38 138.38 38 153 C25.46 153 12.92 153 0 153 C0 102.51 0 52.02 0 0 Z " fill="#052557" transform="translate(1835,657)"/>
<path d="M0 0 C38.94 0 77.88 0 118 0 C118 9.9 118 19.8 118 30 C91.27 30 64.54 30 37 30 C37 39.9 37 49.8 37 60 C60.76 60 84.52 60 109 60 C109 69.57 109 79.14 109 89 C85.24 89 61.48 89 37 89 C37 100.22 37 111.44 37 123 C64.72 123 92.44 123 121 123 C121 132.9 121 142.8 121 153 C81.07 153 41.14 153 0 153 C0 102.51 0 52.02 0 0 Z " fill="#062558" transform="translate(2151,657)"/>
<path d="M0 0 C38.28 0 76.56 0 116 0 C116 9.57 116 19.14 116 29 C89.93 29 63.86 29 37 29 C37 38.9 37 48.8 37 59 C60.1 59 83.2 59 107 59 C107 68.57 107 78.14 107 88 C83.57 88 60.14 88 36 88 C36 99.22 36 110.44 36 122 C63.39 122 90.78 122 119 122 C119 131.57 119 141.14 119 151 C79.73 151 40.46 151 0 151 C0 101.17 0 51.34 0 0 Z " fill="#022256" transform="translate(1540,658)"/>
<path d="M0 0 C0.65291016 0.14671143 1.30582031 0.29342285 1.97851562 0.44458008 C6.7424764 1.56452673 11.21885315 3.09816943 15.75 4.9375 C16.39582031 5.18951172 17.04164063 5.44152344 17.70703125 5.70117188 C21.18254571 7.09637327 24.13482665 8.57617911 27 11 C24.94661139 17.51470776 22.50465317 23.78730029 19.8125 30.0625 C19.44447266 30.92810547 19.07644531 31.79371094 18.69726562 32.68554688 C17.80127408 34.79170883 16.90215345 36.89647192 16 39 C10.58323896 38.16976747 6.00216611 35.8449273 1.05859375 33.5703125 C-8.28841148 29.71243411 -17.57724972 28.47525185 -27.625 28.5 C-28.67945312 28.47164062 -29.73390625 28.44328125 -30.8203125 28.4140625 C-39.45999457 28.39267715 -46.15556464 30.52170134 -52.625 36.375 C-54.47219507 39.90146332 -54.55238496 42.06425714 -54 46 C-51.53474187 51.86966223 -47.60975408 53.37309009 -42.1003418 55.79150391 C-37.19145093 57.70496243 -32.18841638 58.94031436 -27.0625 60.125 C-25.05338542 60.60677083 -23.04427083 61.08854167 -21.03515625 61.5703125 C-19.54834351 61.92210571 -19.54834351 61.92210571 -18.03149414 62.28100586 C18.21969529 70.87887595 18.21969529 70.87887595 28 85.4375 C33.9557743 95.86367564 35.8028297 106.13602651 33.375 118.125 C29.2811621 131.30998137 21.65373879 141.05426305 9.5625 147.7265625 C-14.51793198 159.69336254 -45.44565618 158.4360645 -70.62890625 150.64453125 C-79.41265199 147.664205 -88.36712756 143.63287244 -95 137 C-94.62779049 133.11612894 -93.18856645 129.96268269 -91.49609375 126.48046875 C-91.00302734 125.45888672 -90.50996094 124.43730469 -90.00195312 123.38476562 C-89.48568359 122.32966797 -88.96941406 121.27457031 -88.4375 120.1875 C-87.91736328 119.11306641 -87.39722656 118.03863281 -86.86132812 116.93164062 C-85.5792955 114.28524301 -84.29203889 111.6415229 -83 109 C-79.38427913 110.40740463 -75.97053919 112.01936035 -72.53076172 113.81811523 C-59.4215105 120.64066255 -47.05057497 124.16999689 -32.25 124.25 C-31.3115625 124.270625 -30.373125 124.29125 -29.40625 124.3125 C-21.63836309 124.3554165 -14.48069134 123.34413906 -7.9375 118.9375 C-5.19069022 116.19069022 -4.80844231 114.47490387 -4.6875 110.6875 C-4.65011719 109.92824219 -4.61273437 109.16898438 -4.57421875 108.38671875 C-5.17156758 105.03827713 -6.71281062 103.49016716 -9 101 C-17.02132582 96.34200339 -26.35247364 94.4968868 -35.3125 92.5 C-77.25228007 82.71264205 -77.25228007 82.71264205 -87.30078125 66.9609375 C-93.21628309 55.81828313 -93.73648864 43.01732188 -90.375 31 C-88.43479344 25.48572872 -85.93307575 21.29495681 -82 17 C-81.49855469 16.40832031 -80.99710938 15.81664062 -80.48046875 15.20703125 C-73.18805051 7.16940238 -63.43493534 2.44713085 -53 0 C-52.02289062 -0.27714844 -51.04578125 -0.55429687 -50.0390625 -0.83984375 C-33.59791575 -5.07705141 -16.40141223 -3.74791181 0 0 Z " fill="#042355" transform="translate(2382,657)"/>
<path d="M0 0 C-0.62834505 3.79111532 -1.73528803 7.00780452 -3.28515625 10.51953125 C-3.95708008 12.0519043 -3.95708008 12.0519043 -4.64257812 13.61523438 C-5.11115234 14.67033203 -5.57972656 15.72542969 -6.0625 16.8125 C-6.53494141 17.88693359 -7.00738281 18.96136719 -7.49414062 20.06835938 C-8.65832536 22.71423376 -9.82707832 25.35798995 -11 28 C-14.75972988 27.30535262 -17.79989347 26.28952508 -21.25 24.625 C-32.02252528 19.60845391 -41.44856765 17.8108017 -53.3125 17.75 C-54.30701172 17.729375 -55.30152344 17.70875 -56.32617188 17.6875 C-64.1505999 17.64639992 -70.95814378 18.33837581 -77 23.625 C-77.66 24.40875 -78.32 25.1925 -79 26 C-79.33 26.33 -79.66 26.66 -80 27 C-80.61459697 31.74117659 -80.81481285 35.69047934 -78.25 39.8125 C-69.84122443 45.47225279 -60.24462664 47.90186259 -50.4375 49.9375 C-8.67717495 59.12483134 -8.67717495 59.12483134 1.8125 74.875 C7.49418278 84.95230899 8.5390467 95.12216772 6.30859375 106.5390625 C2.88303849 118.77933109 -3.9912618 128.37817203 -14.75 135.1875 C-38.3294652 148.43993485 -67.7609246 147.2915032 -93.15527344 140.41650391 C-103.10691498 137.45181627 -113.20389145 132.98961457 -121 126 C-120.38253379 122.12624436 -119.2081036 119.00287982 -117.49609375 115.48046875 C-117.00302734 114.45888672 -116.50996094 113.43730469 -116.00195312 112.38476562 C-115.48568359 111.32966797 -114.96941406 110.27457031 -114.4375 109.1875 C-113.91736328 108.11306641 -113.39722656 107.03863281 -112.86132812 105.93164062 C-111.5792955 103.28524301 -110.29203889 100.6415229 -109 98 C-105.38427913 99.40740463 -101.97053919 101.01936035 -98.53076172 102.81811523 C-81.41561221 111.72548266 -61.76233704 116.57618854 -42.5625 111.75 C-37.90076547 110.19365289 -34.54683611 108.20976586 -31.6875 104.125 C-30.43394995 100.25039075 -30.4383327 97.21040013 -32.15917969 93.50195312 C-38.29192014 85.16663162 -52.23779745 83.47415005 -61.75 81.5 C-100.55473711 72.99210216 -100.55473711 72.99210216 -112 58 C-116.40815357 50.48088389 -118.19709101 44.49916497 -118.25 35.875 C-118.270625 35.05773437 -118.29125 34.24046875 -118.3125 33.3984375 C-118.38722239 21.59230066 -113.35286434 11.40404621 -105.375 2.8125 C-97.8355383 -4.29531313 -88.97146361 -8.54628906 -79 -11 C-77.205625 -11.556875 -77.205625 -11.556875 -75.375 -12.125 C-52.03540715 -18.17600555 -19.73074229 -14.27330293 0 0 Z " fill="#032355" transform="translate(2549,668)"/>
<path d="M0 0 C35.88614449 -3.13479289 35.88614449 -3.13479289 45.10546875 1.59228516 C49.74917435 5.85002832 52.11532887 11.24151122 54.55371094 16.9609375 C57.2430266 22.61195057 61.08515486 27.51322013 64.75 32.5625 C66.10376282 34.49795042 67.45309052 36.43651459 68.796875 38.37890625 C69.36760742 39.1994751 69.93833984 40.02004395 70.52636719 40.86547852 C71.70035688 42.56597418 72.85377713 44.2806657 74 46 C74.66 46 75.32 46 76 46 C77.59649876 44.09736054 77.59649876 44.09736054 79.23828125 41.6015625 C80.21244995 40.18206299 80.21244995 40.18206299 81.20629883 38.73388672 C81.90134521 37.7079541 82.5963916 36.68202148 83.3125 35.625 C84.75900019 33.5146534 86.20693659 31.40529056 87.65625 29.296875 C88.38328125 28.23791016 89.1103125 27.17894531 89.859375 26.08789062 C93.46357567 20.88876539 97.1860625 15.77699964 100.92504883 10.67431641 C101.66791138 9.6560376 101.66791138 9.6560376 102.42578125 8.6171875 C102.85286377 8.03565918 103.27994629 7.45413086 103.7199707 6.85498047 C105.13501938 4.95014377 105.13501938 4.95014377 106.08203125 2.30444336 C108 0 108 0 109.84965515 -0.43280029 C112.33526388 -0.58144191 114.77265895 -0.56116307 117.26171875 -0.48828125 C118.16751175 -0.48120651 119.07330475 -0.47413177 120.00654602 -0.46684265 C122.90103583 -0.43884228 125.7935945 -0.37609441 128.6875 -0.3125 C130.64906061 -0.28742438 132.61065154 -0.26460993 134.57226562 -0.24414062 C139.38225505 -0.18899716 144.19080009 -0.10268642 149 0 C147.83010316 3.11994773 146.60685234 5.82684606 144.671875 8.5390625 C143.97771484 9.51842773 143.97771484 9.51842773 143.26953125 10.51757812 C142.76808594 11.21302734 142.26664063 11.90847656 141.75 12.625 C140.95916016 13.73391602 140.95916016 13.73391602 140.15234375 14.86523438 C135.57552992 21.25883964 130.90246476 27.58127389 126.22265625 33.8996582 C121.82684962 39.84503519 117.51899162 45.84630633 113.28637695 51.90893555 C110.90328877 55.32079963 108.49274254 58.70130098 105.99609375 62.03125 C105.52268555 62.66957764 105.04927734 63.30790527 104.56152344 63.96557617 C103.67021935 65.16364217 102.76904404 66.35445113 101.85644531 67.53637695 C99.57477728 70.42561049 99.57477728 70.42561049 99.23608398 73.92724609 C100.08615036 76.23375409 101.15760098 77.99680128 102.5546875 80.01953125 C103.08118896 80.78644287 103.60769043 81.55335449 104.15014648 82.34350586 C104.71934814 83.15827393 105.2885498 83.97304199 105.875 84.8125 C106.46289307 85.66271729 107.05078613 86.51293457 107.65649414 87.38891602 C111.60332834 93.07071607 115.64604872 98.67457449 119.76757812 104.23046875 C124.17647635 110.18912317 128.40828077 116.26703859 132.64135742 122.35131836 C137.31247646 129.05274337 142.07786301 135.68125699 146.91357422 142.26489258 C147.42162598 142.96122803 147.92967773 143.65756348 148.453125 144.375 C148.89817383 144.98085938 149.34322266 145.58671875 149.80175781 146.2109375 C151.05049113 148.07538691 152.01373104 149.98698842 153 152 C115.37324381 155.45598698 115.37324381 155.45598698 105.70166016 150.21142578 C100.72875922 145.4448441 98.14052539 139.50089335 95.50341797 133.2265625 C92.83062592 127.49034623 89.01806622 122.54189692 85.3125 117.4375 C83.9933799 115.54225058 82.67679128 113.64523556 81.36328125 111.74609375 C79.0175367 108.40010049 76.62120414 105.138809 74 102 C66.46658666 112.71452882 58.96052818 123.444731 51.61645508 134.2902832 C50.62179598 135.75338304 49.60564247 137.20208374 48.56933594 138.63598633 C46.89811108 141.02967471 46.89811108 141.02967471 45.59472656 143.97924805 C43.69391399 147.51188493 42.22678228 149.58194118 39 152 C32.05262599 153.82590603 24.59640895 153.0296441 17.5 152.6875 C15.51315594 152.6322739 13.52616486 152.58209235 11.5390625 152.53710938 C6.68905958 152.41636552 1.8461503 152.22688564 -3 152 C1.07556974 145.50808751 5.22633355 139.10832636 9.6875 132.875 C10.73314365 131.4036961 11.77871448 129.93234044 12.82421875 128.4609375 C13.35063965 127.72198242 13.87706055 126.98302734 14.41943359 126.22167969 C16.95675243 122.65516726 19.47773851 119.0771683 22 115.5 C22.99732558 114.08718999 23.99472156 112.67442967 24.9921875 111.26171875 C27.01930446 108.39007978 29.04521664 105.51759583 31.0703125 102.64453125 C31.57667236 101.92676514 32.08303223 101.20899902 32.60473633 100.46948242 C33.60874797 99.04496936 34.61122062 97.6193702 35.61206055 96.19262695 C38.03431723 92.74691552 40.48527244 89.33117901 43.01171875 85.9609375 C43.48399902 85.32373779 43.9562793 84.68653809 44.44287109 84.0300293 C45.33234372 82.83344287 46.23190893 81.64426924 47.14306641 80.46411133 C49.42236014 77.57573992 49.42236014 77.57573992 49.77099609 74.07543945 C48.89870737 71.72733101 47.78745534 69.97685672 46.33203125 67.9375 C45.77563965 67.15093018 45.21924805 66.36436035 44.64599609 65.55395508 C44.04094238 64.7111499 43.43588867 63.86834473 42.8125 63 C41.52977314 61.19153021 40.24722607 59.38293287 38.96484375 57.57421875 C38.30597168 56.64915527 37.64709961 55.7240918 36.96826172 54.77099609 C33.91237685 50.46880144 30.89518175 46.13979206 27.875 41.8125 C23.49547837 35.55089513 19.09865922 29.30184752 14.6875 23.0625 C13.25062135 21.02640631 11.81429963 18.98992189 10.37841797 16.953125 C9.45694656 15.64746236 8.53408643 14.34277875 7.60986328 13.0390625 C6.31880998 11.21661779 5.03369222 9.39013396 3.75 7.5625 C2.65945313 6.01755859 2.65945313 6.01755859 1.546875 4.44140625 C0 2 0 2 0 0 Z " fill="#022255" transform="translate(1670,657)"/>
<path d="M0 0 C1.31629395 0.00902344 2.63258789 0.01804687 3.98876953 0.02734375 C27.45948624 0.44527168 46.35391847 9.1502486 62.69140625 25.93359375 C63.16449219 26.42988281 63.63757812 26.92617188 64.125 27.4375 C59.85824037 32.85743791 55.14863699 36.99754891 49.75 41.28125 C47.54385928 43.09343702 45.5798381 44.92787161 43.625 47 C41.125 49.4375 41.125 49.4375 38.125 49.4375 C36.9901804 48.3026804 35.86030574 47.16254514 34.75390625 46 C23.7023981 35.39903295 12.41225493 32.83363517 -2.45043945 32.96459961 C-9.53722707 33.17777517 -15.61850161 33.87814933 -21.875 37.4375 C-22.66648437 37.87320313 -23.45796875 38.30890625 -24.2734375 38.7578125 C-34.94280825 45.24450635 -40.61023635 54.64320906 -44.51953125 66.37109375 C-46.91219005 80.28006632 -44.35585571 95.5363143 -36.48046875 107.30078125 C-30.019084 115.90023979 -20.56650097 122.22416733 -9.875 124.4375 C4.68459938 125.73775814 18.10930623 124.97143544 30.1875 115.9375 C33.32846301 113.25947743 36.29932444 110.44547721 39.125 107.4375 C42.8323348 109.00665101 45.33391864 111.31645254 48.25 114.0625 C53.34927905 118.78430887 58.6342118 123.17350396 64.125 127.4375 C62.51079785 135.61494166 54.78027169 140.64886009 48.4296875 145.2890625 C43.26667141 148.64563324 37.81243793 151.10908581 32.125 153.4375 C31.31933594 153.78683594 30.51367188 154.13617187 29.68359375 154.49609375 C9.68945532 161.85271568 -16.42201881 160.54161937 -35.875 152.125 C-37.55624604 151.25683707 -39.22314822 150.36036555 -40.875 149.4375 C-41.83277344 148.94636719 -42.79054688 148.45523438 -43.77734375 147.94921875 C-62.04231298 138.09976945 -74.30804897 122.09469072 -80.87109375 102.45703125 C-87.36722309 79.92261129 -83.859583 57.80019645 -72.6875 37.375 C-62.18467555 20.08816234 -45.24951262 7.88577576 -25.78076172 2.59692383 C-17.13218828 0.54806597 -8.87037731 -0.07314832 0 0 Z " fill="#032255" transform="translate(1321.875,654.5625)"/>
<path d="M0 0 C44.55 0 89.1 0 135 0 C135 10.23 135 20.46 135 31 C118.83 31 102.66 31 86 31 C86 71.26 86 111.52 86 153 C73.46 153 60.92 153 48 153 C48 112.74 48 72.48 48 31 C32.16 31 16.32 31 0 31 C0 20.77 0 10.54 0 0 Z " fill="#052457" transform="translate(1097,657)"/>
<path d="M0 0 C12.54 0 25.08 0 38 0 C38 50.49 38 100.98 38 153 C25.79 153 13.58 153 1 153 C0 152 0 152 -0.12304783 149.50311184 C-0.12212604 148.38313336 -0.12120424 147.26315489 -0.12025452 146.10923767 C-0.12162918 144.82891159 -0.12300385 143.54858551 -0.12442017 142.22946167 C-0.12088055 140.79742409 -0.11724573 139.36538674 -0.11352539 137.93334961 C-0.11324353 136.43568422 -0.11340124 134.9380187 -0.1139679 133.44035339 C-0.11425591 129.36201828 -0.10835864 125.28371233 -0.10139394 121.20538402 C-0.09516095 116.94792372 -0.09455665 112.69046282 -0.09336853 108.43299866 C-0.09025505 100.36526813 -0.08204144 92.29755109 -0.07201904 84.22982651 C-0.06085842 75.04739221 -0.05534758 65.86495728 -0.05032361 56.68251789 C-0.03985884 37.78833605 -0.02151315 18.89417271 0 0 Z " fill="#082659" transform="translate(1406,657)"/>
<path d="M0 0 C4.37988299 4.64533045 6.30488762 8.21102237 6.5625 14.5625 C6.23699131 22.48321144 3.15684163 28.73528588 -2.15234375 34.546875 C-10.46607143 42.1875 -10.46607143 42.1875 -14.9375 42.1875 C-10.26344443 47.77356642 -5.26464303 52.97068799 -0.125 58.125 C0.54539307 58.79990479 1.21578613 59.47480957 1.90649414 60.17016602 C2.54192139 60.80365967 3.17734863 61.43715332 3.83203125 62.08984375 C4.40542236 62.66210693 4.97881348 63.23437012 5.56958008 63.82397461 C7.03627378 65.28812576 7.03627378 65.28812576 9.0625 66.1875 C10.89652304 60.22081172 12.60139252 54.25671567 14.0625 48.1875 C18.25719571 48.78674224 22.07249834 49.76249941 26.0625 51.1875 C26.58242142 58.04508428 24.40481035 62.45846119 21.375 68.49023438 C19.46599885 72.26116147 19.46599885 72.26116147 19.53125 76.34765625 C21.62321023 78.86121051 23.84475923 81.1548295 26.1875 83.4375 C27.55261719 84.77554688 27.55261719 84.77554688 28.9453125 86.140625 C29.64398437 86.81609375 30.34265625 87.4915625 31.0625 88.1875 C29.45545711 92.5663233 27.74173092 95.20907497 24.0625 98.1875 C19.81103971 98.06990642 17.60362235 95.02629824 14.8125 92.125 C13.47445313 90.74634766 13.47445313 90.74634766 12.109375 89.33984375 C11.43390625 88.62957031 10.7584375 87.91929687 10.0625 87.1875 C9.32644531 87.6309375 8.59039063 88.074375 7.83203125 88.53125 C-5.90421891 96.74587633 -19.03189668 101.80754708 -35.3046875 98.50390625 C-44.49408926 95.6862907 -51.31369745 90.96157999 -56.9375 83.1875 C-60.1121188 76.83826239 -59.93221998 69.11545276 -58.9375 62.1875 C-55.73008229 52.85793899 -47.41634108 45.80077959 -38.9375 41.1875 C-38.2775 41.1875 -37.6175 41.1875 -36.9375 41.1875 C-37.48019531 40.48625 -38.02289062 39.785 -38.58203125 39.0625 C-45.13952601 30.36643487 -49.48908888 23.36964055 -47.9375 12.1875 C-46.02978248 5.528486 -41.58554227 0.99992853 -35.9375 -2.8125 C-24.47880321 -8.93248579 -10.66240019 -6.57892778 0 0 Z " fill="#6F7480" transform="translate(1768.9375,884.8125)"/>
<path d="M0 0 C8.37375 -0.061875 16.7475 -0.12375 25.375 -0.1875 C27.99872559 -0.21481201 30.62245117 -0.24212402 33.32568359 -0.27026367 C35.43326356 -0.27903538 37.54084866 -0.28667769 39.6484375 -0.29296875 C40.72005127 -0.30831665 41.79166504 -0.32366455 42.89575195 -0.33947754 C54.6166842 -0.3435072 64.87890318 2.76521995 73.8203125 10.59375 C80.89539096 18.13101952 82.61069554 26.64623729 82.46826172 36.67138672 C82.05208007 46.48760837 79.1367636 53.90890699 72.28125 61.05859375 C68.56440924 64.22172707 64.52556061 66.23375456 60 68 C59.14664062 68.34603271 58.29328125 68.69206543 57.4140625 69.04858398 C53.13992055 70.23968318 49.29422832 70.2507031 44.8828125 70.1953125 C44.02565643 70.1924826 43.16850037 70.18965271 42.28536987 70.18673706 C39.56510068 70.17559999 36.84516859 70.1505076 34.125 70.125 C32.27344228 70.11496182 30.42187936 70.10583744 28.5703125 70.09765625 C24.04664268 70.07738891 19.52369581 70.03822842 15 70 C15 80.56 15 91.12 15 102 C10.05 102 5.1 102 0 102 C0 68.34 0 34.68 0 0 Z " fill="#6E737E" transform="translate(1109,880)"/>
<path d="M0 0 C7.10427541 5.19410191 12.66694142 12.99371542 14.79296875 21.56640625 C16.70392166 35.47284572 15.1540398 47.628691 7.1875 59.4375 C0.10767683 67.36573174 -9.58394815 72.18853049 -20.23046875 72.80859375 C-32.92293352 73.13777027 -42.22197158 71.58340063 -52.25 63.1875 C-61.24753189 54.44951229 -64.84280963 43.85680631 -65.25 31.4375 C-64.96375938 20.06254652 -60.78160306 11.59589808 -52.96484375 3.53125 C-38.50846004 -10.03418362 -16.58150377 -9.77883556 0 0 Z " fill="#70757F" transform="translate(2046.8125,910.5625)"/>
<path d="M0 0 C13 0 13 0 15.93774414 2.4206543 C16.54739014 3.54383057 17.15703613 4.66700684 17.78515625 5.82421875 C18.13384262 6.43327057 18.48252899 7.04232239 18.84178162 7.66983032 C19.963179 9.65315511 21.01121622 11.66628035 22.0625 13.6875 C22.8286776 15.07119174 23.59955783 16.45228946 24.375 17.83081055 C25.91560601 20.58575448 27.42905975 23.35278597 28.91845703 26.13574219 C31.20085773 30.39495236 33.60182956 34.58074487 36.02416992 38.76171875 C37.4647127 41.25151047 38.88322557 43.75267439 40.296875 46.2578125 C43.46058205 51.84150216 46.73871081 57.35752364 50.05664062 62.85083008 C53 67.78266545 53 67.78266545 53 70 C53.66 70 54.32 70 55 70 C55.26538574 69.12359863 55.53077148 68.24719727 55.80419922 67.34423828 C56.96768229 64.09038138 58.34659437 61.4420522 60.1328125 58.4921875 C60.76662842 57.43628418 61.40044434 56.38038086 62.0534668 55.29248047 C62.73707275 54.16471191 63.42067871 53.03694336 64.125 51.875 C65.57538074 49.46058074 67.02052997 47.04305242 68.46484375 44.625 C68.83650162 44.00358124 69.20815948 43.38216248 69.59107971 42.74191284 C73.71147731 35.8367861 77.70728033 28.86158829 81.6875 21.875 C82.18724335 20.99905182 82.18724335 20.99905182 82.69708252 20.10540771 C86.50662603 13.42649121 90.27979828 6.7290838 94 0 C98.62 0 103.24 0 108 0 C108 33.66 108 67.32 108 102 C103.05 102 98.1 102 93 102 C92.67 78.9 92.34 55.8 92 32 C89.03 37.28 86.06 42.56 83 48 C79.66003198 53.70684921 76.29818394 59.39833292 72.8984375 65.06958008 C69.93048901 70.02621458 66.9741139 74.97405355 64.25 80.0703125 C63.85941406 80.78243896 63.46882813 81.49456543 63.06640625 82.22827148 C62.08563916 84.03016157 61.13506478 85.84839931 60.1875 87.66796875 C58 90 58 90 54.24609375 91.125 C51.10633606 90.86788656 50.16612897 90.18440191 48.03564453 87.81958008 C45.88062764 84.56696514 43.95064155 81.22303898 42.0625 77.8125 C41.33875151 76.55647977 40.61214184 75.30210427 39.8828125 74.04931641 C38.35327297 71.41228274 36.84082107 68.7664596 35.34033203 66.11279297 C32.99019674 61.96576411 30.57871574 57.85668404 28.15234375 53.75390625 C27.36509261 52.42150377 26.577901 51.08906613 25.79077148 49.7565918 C25.41008514 49.11217133 25.0293988 48.46775085 24.63717651 47.80380249 C22.82244169 44.72577107 21.01877306 41.64134028 19.21875 38.5546875 C18.61998047 37.52843262 18.02121094 36.50217773 17.40429688 35.44482422 C16.56529799 33.98416099 15.75332014 32.50664029 15 31 C14.67 54.43 14.34 77.86 14 102 C9.38 102 4.76 102 0 102 C0 68.34 0 34.68 0 0 Z " fill="#6F737F" transform="translate(1855,880)"/>
<path d="M0 0 C1.546875 0.8353125 1.546875 0.8353125 3.125 1.6875 C11.40633819 8.34857637 16.42930626 15.71722502 19 26 C19 30.62 19 35.24 19 40 C-1.46 40 -21.92 40 -43 40 C-38.96148432 50.09628921 -36.4839396 55.89485975 -26.83203125 60.2734375 C-18.55555644 63.55579212 -10.65174945 62.47474978 -2.52734375 59.22265625 C1.01487683 57.50903177 3.93009221 55.45592623 7 53 C9.64 55.97 12.28 58.94 15 62 C9.66859795 69.39517059 2.84862741 72.97720199 -6 75 C-20.88436367 76.45133019 -33.44148071 75.61808349 -45.375 65.9375 C-53.92605046 57.68889827 -57.93777464 46.8639423 -58.3125 35.1875 C-58.07411243 24.03937542 -54.70114672 13.79116483 -46.7734375 5.73828125 C-34.07338161 -5.16763976 -14.99081731 -8.57044735 0 0 Z " fill="#6F747F" transform="translate(2208,908)"/>
<path d="M0 0 C6.3492953 4.73506768 9.69082739 12.07345475 10.96875 19.75 C11.05220812 21.59004979 11.08658906 23.43272176 11.08227539 25.2746582 C11.08216209 26.89577263 11.08216209 26.89577263 11.08204651 28.54963684 C11.07688522 29.7050145 11.07172394 30.86039215 11.06640625 32.05078125 C11.0649913 33.24229294 11.06357635 34.43380463 11.06211853 35.66142273 C11.05652728 39.46180751 11.04397632 43.26213307 11.03125 47.0625 C11.02623387 49.64127519 11.02167116 52.2200513 11.01757812 54.79882812 C11.0065607 61.11590818 10.98930201 67.43294406 10.96875 73.75 C6.34875 73.75 1.72875 73.75 -3.03125 73.75 C-3.03125 70.78 -3.03125 67.81 -3.03125 64.75 C-3.69125 64.75 -4.35125 64.75 -5.03125 64.75 C-5.03125 65.41 -5.03125 66.07 -5.03125 66.75 C-6.4249 67.54550392 -7.82128431 68.33621838 -9.21875 69.125 C-9.99605469 69.56585937 -10.77335937 70.00671875 -11.57421875 70.4609375 C-17.3910886 73.51271341 -21.8431864 74.08779402 -28.34375 74.0625 C-29.16037109 74.07861328 -29.97699219 74.09472656 -30.81835938 74.11132812 C-39.56432106 74.11829702 -45.94234465 71.7044905 -52.33203125 65.69140625 C-56.98167484 60.37905484 -57.60914615 54.31025653 -57.37109375 47.42578125 C-56.59324766 41.3013609 -54.10224445 37.31268111 -49.34375 33.4375 C-40.41596352 26.76555678 -30.05486433 27.37669669 -19.46875 27.5625 C-17.96811241 27.57757608 -16.46746015 27.59125931 -14.96679688 27.60351562 C-11.32130548 27.63628518 -7.67637365 27.68790521 -4.03125 27.75 C-4.15786818 26.31832764 -4.29379727 24.88747693 -4.43359375 23.45703125 C-4.50827881 22.66014893 -4.58296387 21.8632666 -4.65991211 21.04223633 C-5.34421624 16.81808675 -7.28921875 14.19121657 -10.546875 11.49609375 C-17.57877892 7.10879718 -26.94078868 7.6828778 -34.7890625 9.328125 C-38.22748456 10.42375779 -41.171523 11.82675315 -44.34375 13.5625 C-47.03125 14.75 -47.03125 14.75 -49.15625 14.375 C-52.06230471 11.85641925 -53.38007077 9.23582281 -55.03125 5.75 C-54.03125 2.75 -54.03125 2.75 -51.58984375 1.21484375 C-50.55988281 0.71082031 -49.52992187 0.20679688 -48.46875 -0.3125 C-46.95087891 -1.07240234 -46.95087891 -1.07240234 -45.40234375 -1.84765625 C-31.52234675 -7.62160633 -12.97681681 -7.98573342 0 0 Z " fill="#717681" transform="translate(1259.03125,909.25)"/>
<path d="M0 0 C7.02491752 5.82100056 11.21181599 12.9803693 13.25 21.8125 C13.25 26.7625 13.25 31.7125 13.25 36.8125 C-7.21 36.8125 -27.67 36.8125 -48.75 36.8125 C-44.01740294 48.64399264 -41.06727538 53.03192028 -30 58.0625 C-20.95874769 60.14894284 -13.05944074 58.824889 -4.75 54.8125 C-1.68725309 52.77201962 -1.68725309 52.77201962 0.25 50.8125 C4.54951803 52.40491408 6.64671947 55.16790725 9.25 58.8125 C7.64898487 63.61554539 3.51183015 65.36663836 -0.75 67.8125 C-11.86922817 72.88613383 -26.80992884 74.22616862 -38.453125 69.91015625 C-48.93852072 64.89927836 -56.35892548 58.71339972 -61.1875 48 C-64.7430323 37.02422637 -64.64817452 22.77313564 -59.4140625 12.421875 C-53.26052623 2.77266788 -45.63006964 -3.79387058 -34.40234375 -6.8203125 C-21.52148045 -8.6035248 -10.7504684 -7.65347916 0 0 Z " fill="#70747F" transform="translate(1515.75,911.1875)"/>
<path d="M0 0 C4.62 0 9.24 0 14 0 C14 22.44 14 44.88 14 68 C19.03684899 63.59275714 23.84638879 59.26282055 28.5 54.5 C32.55179436 50.39701284 36.6102944 46.4124453 41.0859375 42.765625 C43.14345387 40.96649812 43.14345387 40.96649812 45.0390625 38.359375 C50.65453446 31.45099369 50.65453446 31.45099369 55.30322266 30.55712891 C60.90083087 30.13327797 66.41954287 30.48435201 72 31 C64.89458282 39.46103567 57.19813787 47.25496582 48.79296875 54.4296875 C46.05880367 56.82431574 43.53739854 59.3991665 41 62 C42.64271218 65.71164158 44.94892687 68.68166296 47.4375 71.875 C47.87779541 72.44162354 48.31809082 73.00824707 48.77172852 73.59204102 C50.17710716 75.39789433 51.58786284 77.19942814 53 79 C53.67675781 79.86455811 53.67675781 79.86455811 54.3671875 80.74658203 C58.60912166 86.16393653 62.86492977 91.57018735 67.140625 96.9609375 C67.65052979 97.60554932 68.16043457 98.25016113 68.68579102 98.91430664 C69.67121477 100.15990405 70.65861877 101.40393793 71.64819336 102.64624023 C75 106.88743958 75 106.88743958 75 108 C59.24493737 110.05713771 59.24493737 110.05713771 54.21386719 106.86767578 C50.96631354 103.7182451 48.66328614 99.90514942 46.31982422 96.0625 C44.02538308 92.47695824 41.31144717 89.23317666 38.625 85.9375 C38.13652588 85.31931396 37.64805176 84.70112793 37.14477539 84.06420898 C34.29030334 80.46774127 31.30976664 77.18339373 28 74 C27.22914062 74.78246094 26.45828125 75.56492187 25.6640625 76.37109375 C24.65117427 77.39336057 23.63814616 78.41548881 22.625 79.4375 C21.86316406 80.2119043 21.86316406 80.2119043 21.0859375 81.00195312 C17.2265625 84.88671875 17.2265625 84.88671875 15 86 C14.67 93.26 14.34 100.52 14 108 C9.38 108 4.76 108 0 108 C0 72.36 0 36.72 0 0 Z " fill="#6E727E" transform="translate(1375,874)"/>
<path d="M0 0 C9.0028125 -0.1546875 9.0028125 -0.1546875 18.1875 -0.3125 C20.05301514 -0.35802002 21.91853027 -0.40354004 23.84057617 -0.45043945 C34.40184507 -0.60109949 44.98855951 -0.33480102 53.3425293 7.07885742 C59.47964864 13.67725556 60.39305604 18.63543167 60.25390625 27.578125 C59.77530157 34.02824351 57.3209548 38.19480027 53 43 C50.125 44.765625 50.125 44.765625 47 46.25 C45.96875 46.75015625 44.9375 47.2503125 43.875 47.765625 C38.69897061 49.98794197 34.10666219 50.13440132 28.515625 50.09765625 C27.7922998 50.09664917 27.06897461 50.09564209 26.32373047 50.09460449 C23.63247076 50.08938887 20.94123372 50.07542762 18.25 50.0625 C9.21625 50.0315625 9.21625 50.0315625 0 50 C0 33.5 0 17 0 0 Z " fill="#F8F9F9" transform="translate(2029,687)"/>
<path d="M0 0 C6.414375 -0.061875 12.82875 -0.12375 19.4375 -0.1875 C21.44384521 -0.21481201 23.45019043 -0.24212402 25.51733398 -0.27026367 C27.13524781 -0.27903821 28.75316835 -0.28667985 30.37109375 -0.29296875 C31.59753601 -0.3159906 31.59753601 -0.3159906 32.84875488 -0.33947754 C40.32245182 -0.34281849 47.99751967 1.08322371 53.6484375 6.37109375 C58.60770093 12.34800951 60.80919413 18.57927861 60.42578125 26.32421875 C59.4274908 32.59787891 56.56735565 38.55951534 52 43 C46.84960231 46.13918868 41.95268606 48.13276166 35.87402344 48.11352539 C35.06239746 48.11340454 34.25077148 48.11328369 33.41455078 48.11315918 C32.14973877 48.10548523 32.14973877 48.10548523 30.859375 48.09765625 C30.0770752 48.09664917 29.29477539 48.09564209 28.48876953 48.09460449 C25.57583137 48.08938569 22.66291416 48.07542443 19.75 48.0625 C13.2325 48.041875 6.715 48.02125 0 48 C0 32.16 0 16.32 0 0 Z " fill="#FBFDFC" transform="translate(1873,688)"/>
<path d="M0 0 C-0.57634139 4.75481646 -2.55068521 7.97048212 -5 12 C-5.556875 11.80664062 -6.11375 11.61328125 -6.6875 11.4140625 C-23.1208736 5.7936144 -23.1208736 5.7936144 -39.75 8.875 C-43.02249424 10.62509596 -43.02249424 10.62509596 -44 13 C-44.48858724 17.96773498 -44.48858724 17.96773498 -42.375 22.3125 C-37.43983789 25.81906255 -31.6740537 26.46699252 -25.8125 27.375 C-15.83792643 29.05389926 -5.89744413 30.95633338 1 39 C4.27180476 44.08456144 3.67233365 50.20545429 3 56 C0.45812494 62.8510624 -4.80617698 67.09729692 -10.9375 70.75 C-22.43551264 75.44306638 -40.6264892 74.71899314 -52 70 C-55.40209035 68.44897916 -58.72240661 66.79876601 -62 65 C-61.21258341 60.2009031 -59.50483074 57.12085057 -57 53 C-52.35122273 54.46803493 -47.86973062 56.23912989 -43.3671875 58.09765625 C-35.68687855 61.02529877 -26.12692952 61.42756989 -18.3125 58.75 C-14.24224357 56.70054082 -14.24224357 56.70054082 -12 53 C-11.59185595 49.43808422 -11.59185595 49.43808422 -13 46 C-19.90555481 41.73270088 -26.76436571 40.78195823 -34.69140625 39.66601562 C-42.50646879 38.42890322 -50.54265011 36.15419495 -56 30.0625 C-59.77012892 24.28949009 -60.91229943 18.80182742 -60 12 C-57.80739744 4.7919832 -53.20056874 0.36879708 -46.76953125 -3.2578125 C-32.25611516 -9.6932187 -13.86480897 -6.61729519 0 0 Z " fill="#6F747F" transform="translate(1658,910)"/>
<path d="M0 0 C-0.57634139 4.75481646 -2.55068521 7.97048212 -5 12 C-5.6290625 11.80664062 -6.258125 11.61328125 -6.90625 11.4140625 C-9.59994072 10.59459635 -12.29945726 9.79656297 -15 9 C-15.67933594 8.78730469 -16.35867187 8.57460938 -17.05859375 8.35546875 C-25.12776309 6.02362979 -32.94972205 5.766897 -40.44140625 9.83203125 C-43.120872 11.8399517 -43.95297505 13.68426103 -44.4375 16.9375 C-44.28107577 20.13577793 -44.28107577 20.13577793 -41.875 22.25 C-36.32176901 25.63022756 -30.5636159 26.46114364 -24.25 27.375 C-13.86078618 29.03395839 -6.11711806 30.6657116 0.72265625 39.1953125 C4.42096609 44.42044751 3.56729116 50.85434574 3 57 C1.02944932 63.41434355 -3.60902569 66.5041292 -9.20703125 69.7734375 C-15.71605997 72.63194801 -21.79920328 73.3390817 -28.8125 73.25 C-29.60221191 73.24178223 -30.39192383 73.23356445 -31.20556641 73.22509766 C-42.39059884 73.01207123 -51.32975849 70.95091785 -61 65 C-61.33 64.34 -61.66 63.68 -62 63 C-61.00390625 60.6171875 -61.00390625 60.6171875 -59.5625 57.875 C-58.85287109 56.50988281 -58.85287109 56.50988281 -58.12890625 55.1171875 C-57.75636719 54.41851563 -57.38382813 53.71984375 -57 53 C-54.06691005 53.63648708 -51.62162174 54.60798175 -48.9375 55.9375 C-40.08602465 59.91487863 -27.91853662 62.29176526 -18.5 59.171875 C-14.56008979 57.34709808 -14.56008979 57.34709808 -12 54 C-11.41630557 50.58461856 -11.41630557 50.58461856 -12 47 C-16.8771687 42.71255432 -21.90778676 41.98167555 -28.1875 41 C-49.17255797 37.33950018 -49.17255797 37.33950018 -56 30 C-59.85102583 23.83835866 -60.01626035 17.10521007 -59 10 C-56.35722565 2.769971 -51.25243273 -0.5449919 -44.5859375 -3.90625 C-31.69830792 -9.35721115 -12.0888353 -6.74301868 0 0 Z " fill="#707480" transform="translate(2355,910)"/>
<path d="M0 0 C3.76274995 2.68672376 6.61832203 5.33373305 9.1875 9.1875 C7.96696141 12.84911578 6.81967696 13.35020474 3.625 15.375 C2.79871094 15.90480469 1.97242188 16.43460938 1.12109375 16.98046875 C0.48300781 17.37878906 -0.15507813 17.77710938 -0.8125 18.1875 C-1.225 17.80078125 -1.6375 17.4140625 -2.0625 17.015625 C-9.89391597 9.95336596 -15.71515132 7.44511456 -26.47265625 7.8125 C-34.21885713 8.68224887 -38.35568792 12.2347903 -43.3671875 17.9921875 C-48.14530718 25.24976387 -47.84756309 34.59977661 -46.3125 42.88671875 C-44.44130943 49.14882811 -41.12699181 53.9897726 -35.5625 57.5625 C-29.03508353 60.49672912 -20.77341058 60.37033142 -13.8125 59.1875 C-8.32404041 56.94287932 -4.97341335 53.34841335 -0.8125 49.1875 C2.4875 51.4975 5.7875 53.8075 9.1875 56.1875 C6.17977528 63.70681179 0.74229139 68.43044636 -6.6875 71.6875 C-17.09582476 74.99056498 -31.93004997 75.13750161 -41.8125 70.1875 C-53.16238881 63.75532913 -58.50858139 55.5587412 -62.40234375 43.3359375 C-64.50308935 32.33203196 -63.03133182 21.1074253 -57.1875 11.5625 C-44.0605986 -6.75033775 -19.31571595 -12.04466085 0 0 Z " fill="#717681" transform="translate(1349.8125,909.8125)"/>
<path d="M0 0 C5.28 0 10.56 0 16 0 C19.35370133 7.65787562 22.6856068 15.32503028 26 23 C26.29890137 23.69208557 26.59780273 24.38417114 26.90576172 25.097229 C28.83482926 29.56726051 30.75604511 34.04057286 32.66937256 38.5173645 C33.30635254 40.00554291 33.94522828 41.49291131 34.58599854 42.97946167 C35.49221297 45.08308775 36.39145568 47.18956445 37.2890625 49.296875 C37.56359253 49.93031326 37.83812256 50.56375153 38.12097168 51.21638489 C39.29938843 54.00164885 40 55.93832576 40 59 C40.66 59 41.32 59 42 59 C42.26250801 58.17366058 42.26250801 58.17366058 42.53031921 57.33062744 C44.28705745 51.91675247 46.30300861 46.69757886 48.58203125 41.484375 C48.91869308 40.70668762 49.25535492 39.92900024 49.60221863 39.12774658 C50.31059026 37.49340974 51.02076207 35.85985207 51.73266602 34.22705078 C52.80307951 31.77160983 53.86784718 29.31378393 54.93164062 26.85546875 C58.83845007 17.84672955 62.84480046 8.89747593 67 0 C71.95 0 76.9 0 82 0 C74.8094947 17.41509683 67.39744392 34.72597556 59.875 52 C58.81212755 54.44384865 57.74983284 56.88794793 56.6875 59.33203125 C54.1268995 65.22218226 51.56409365 71.11136883 49 77 C43.72 77 38.44 77 33 77 C28.03027738 66.48075378 23.30481121 55.8918475 18.75 45.1875 C18.09902847 43.66220746 17.44790328 42.1369805 16.79663086 40.61181641 C15.17125262 36.80325744 13.54930854 32.99324756 11.9286499 29.18267822 C11.03357713 27.07891895 10.13736892 24.97564763 9.24072266 22.87255859 C7.67849798 19.20790097 6.11988699 15.54171651 4.5625 11.875 C4.09618164 10.77953857 3.62986328 9.68407715 3.14941406 8.55541992 C2.73014648 7.56517822 2.31087891 6.57493652 1.87890625 5.5546875 C1.5135376 4.69343262 1.14816895 3.83217773 0.77172852 2.94482422 C0 1 0 1 0 0 Z " fill="#70747F" transform="translate(2065,905)"/>
<path d="M0 0 C6.6470889 3.46329129 11.62099634 9.17548903 14 16.3125 C14.73072145 26.09372858 15.22718724 35.13521991 9 43.3125 C4.67000875 48.20158352 -0.60810221 50.99586504 -7.0546875 51.59765625 C-15.71075379 51.82755178 -22.1835993 51.1237424 -28.75 45.25 C-35.26003363 38.09939098 -36.76102915 30.21073689 -36.44140625 20.71484375 C-35.36343182 12.40585502 -31.36630011 6.97455815 -25.0625 1.6875 C-17.7527449 -3.18567006 -8.0305554 -3.3280993 0 0 Z " fill="#FCFCFC" transform="translate(2033,918.6875)"/>
<path d="M0 0 C5.40375 -0.0825 10.8075 -0.165 16.375 -0.25 C18.05899902 -0.28641602 19.74299805 -0.32283203 21.47802734 -0.36035156 C30.28555867 -0.47231551 39.01264295 -0.5404068 45.92333984 5.75097656 C51.10749576 11.29636972 52.46761217 16.66878485 52.31640625 24.1484375 C51.67707778 29.91028665 49.32876177 34.24134471 45.875 38.8125 C36.64522895 45.83515188 27.0032696 45.49834491 15.875 45.25 C10.63625 45.1675 5.3975 45.085 0 45 C0 30.15 0 15.3 0 0 Z " fill="#FBFBFC" transform="translate(1124,893)"/>
<path d="M0 0 C0 4.62 0 9.24 0 14 C-2.475 14.12375 -2.475 14.12375 -5 14.25 C-11.89200853 14.89667946 -17.2059529 16.6712492 -21.875 21.9375 C-24.86526714 26.24700264 -26.2358106 29.72870259 -26.31884766 34.97387695 C-26.33871735 35.93449539 -26.35858704 36.89511383 -26.37905884 37.88484192 C-26.39638565 39.42104439 -26.39638565 39.42104439 -26.4140625 40.98828125 C-26.43342865 42.04661667 -26.4527948 43.10495209 -26.4727478 44.19535828 C-26.53241248 47.56765748 -26.57887693 50.93999106 -26.625 54.3125 C-26.66319181 56.60222823 -26.70224424 58.89194228 -26.7421875 61.18164062 C-26.83810344 66.78764491 -26.92218328 72.39371645 -27 78 C-31.95 78 -36.9 78 -42 78 C-42 52.59 -42 27.18 -42 1 C-37.71 1 -33.42 1 -29 1 C-29 4.3 -29 7.6 -29 11 C-28.34 11 -27.68 11 -27 11 C-26.74734375 10.39414062 -26.4946875 9.78828125 -26.234375 9.1640625 C-23.72400232 4.7629661 -18.64584809 2.76806244 -14.1875 0.6875 C-9.42140506 -0.34048126 -4.87060103 -0.11879515 0 0 Z " fill="#70747E" transform="translate(1589,904)"/>
<path d="M0 0 C0 4.62 0 9.24 0 14 C-2.475 14.0928125 -2.475 14.0928125 -5 14.1875 C-12.05448119 14.83211797 -16.36680903 17.36680903 -21.3125 22.3125 C-25.70313554 29.30499364 -26.45703982 35.55544082 -26.51171875 43.625 C-26.52966995 44.61250244 -26.54762115 45.60000488 -26.56611633 46.61743164 C-26.61992681 49.7449121 -26.654021 52.87224252 -26.6875 56 C-26.7206989 58.13153116 -26.75519091 60.2630426 -26.79101562 62.39453125 C-26.87563644 67.5962454 -26.94258677 72.7979173 -27 78 C-31.62 78 -36.24 78 -41 78 C-41 52.59 -41 27.18 -41 1 C-36.71 1 -32.42 1 -28 1 C-28 4.3 -28 7.6 -28 11 C-27.34 11 -26.68 11 -26 11 C-25.74734375 10.39414062 -25.4946875 9.78828125 -25.234375 9.1640625 C-22.71680188 4.75034253 -17.61223619 2.73602087 -13.125 0.6875 C-8.68678802 -0.28890664 -4.5410187 -0.12273024 0 0 Z " fill="#70747F" transform="translate(2286,904)"/>
<path d="M0 0 C3.17535987 1.26403276 5.19758143 3.51959035 7.52368164 5.93725586 C8.02141586 6.4416066 8.51915009 6.94595734 9.03196716 7.46559143 C10.61850485 9.0754951 12.19452924 10.69521482 13.76977539 12.31616211 C15.35027163 13.93177514 16.93290351 15.5452118 18.51829529 17.15602112 C19.50319895 18.15783617 20.48499423 19.16271905 21.46327209 20.17100525 C23.62536435 22.38026299 25.61994569 24.15377564 28.20727539 25.87866211 C27.83469582 28.41652292 27.54348973 29.58818576 25.57055664 31.29272461 C24.89379883 31.69233398 24.21704102 32.09194336 23.51977539 32.50366211 C22.8559082 32.90842773 22.19204102 33.31319336 21.50805664 33.73022461 C13.42046037 37.76715721 3.34320251 38.47382189 -5.43725586 36.19116211 C-10.05609894 34.07161653 -12.89825728 31.00108528 -15.79272461 26.87866211 C-17.2886184 22.39098074 -17.75456625 18.24281492 -15.95678711 13.82397461 C-13.09548184 8.8887031 -6.38424715 -0.43210824 0 0 Z " fill="#FCFDFD" transform="translate(1740.792724609375,934.121337890625)"/>
<path d="M0 0 C0.33 0 0.66 0 1 0 C1 104.94 1 209.88 1 318 C-27.05 318 -55.1 318 -84 318 C-84 231.54 -84 145.08 -84 56 C-82.68 56.33 -81.36 56.66 -80 57 C-80.495 57.495 -80.495 57.495 -81 58 C-81.09568759 60.76201248 -81.12546477 63.49893587 -81.11352539 66.2612915 C-81.11367425 67.13850507 -81.11382311 68.01571863 -81.11397648 68.91951442 C-81.11327738 71.88419223 -81.10541337 74.84880942 -81.09765625 77.81347656 C-81.09573828 79.93090276 -81.09427391 82.04832941 -81.0932312 84.16575623 C-81.09005856 88.744884 -81.08377114 93.32399356 -81.07516479 97.90311432 C-81.06163909 105.18042361 -81.05574501 112.45772679 -81.05102539 119.73504639 C-81.03896018 136.54593518 -81.017124 153.35680866 -80.99479675 170.16768646 C-80.97450269 185.47949369 -80.95642067 200.79129494 -80.94658184 216.10311294 C-80.94246703 222.13216922 -80.93626565 228.16120701 -80.92483521 234.19025421 C-80.87359223 261.47868848 -81.03730658 288.72666579 -82 316 C-72.53706789 315.90131902 -63.07415194 315.8020177 -53.61132812 315.69335938 C-47.82595426 315.62695572 -42.04058204 315.56164994 -36.25512695 315.50268555 C-31.59317516 315.45510493 -26.93129933 315.40276467 -22.26943779 315.34705925 C-20.48677895 315.32660704 -18.70409925 315.3078988 -16.92140388 315.29092598 C-14.43328399 315.26694514 -11.94530902 315.2368824 -9.45727539 315.20532227 C-8.71281158 315.1995668 -7.96834778 315.19381134 -7.20132446 315.18788147 C-3.81286517 315.4355069 -3.81286517 315.4355069 -1 314 C-0.90368829 312.33280125 -0.87812492 310.66148602 -0.87974548 308.99150848 C-0.87837113 307.89983132 -0.87699678 306.80815415 -0.87558079 305.68339586 C-0.87917575 304.46912401 -0.88277071 303.25485215 -0.88647461 302.00378418 C-0.88625132 300.08633306 -0.88625132 300.08633306 -0.88602352 298.13014555 C-0.88572653 294.56562937 -0.89168342 291.00114614 -0.89859343 287.43663764 C-0.90494314 283.59883796 -0.90553463 279.76103715 -0.9067688 275.92323303 C-0.90966121 269.26832039 -0.91610977 262.61341878 -0.92483521 255.95851135 C-0.9373601 246.33543158 -0.94345913 236.71235592 -0.94776857 227.08926934 C-0.9548429 211.47666459 -0.96565085 195.864065 -0.97949219 180.25146484 C-0.98032 179.31623023 -0.98114781 178.38099562 -0.98200071 177.41742057 C-0.98790159 170.77828029 -0.99393536 164.13914013 -1 157.5 C-1.00692758 149.91617847 -1.01379508 142.33235688 -1.02050781 134.74853516 C-1.02133594 133.81443367 -1.02216407 132.88033218 -1.02301729 131.91792458 C-1.03668403 116.36552893 -1.04645345 100.81313319 -1.05341816 85.26073313 C-1.05790981 75.6570446 -1.06597132 66.05337137 -1.07856297 56.44968998 C-1.0869634 49.87407499 -1.09187358 43.29846353 -1.09398818 36.72284353 C-1.0953386 32.92330398 -1.0983816 29.12378422 -1.10574722 25.32425117 C-1.1136837 21.21489668 -1.11400393 17.10557792 -1.11352539 12.99621582 C-1.11712035 11.78194396 -1.12071531 10.56767211 -1.12441921 9.31660414 C-1.12304486 8.22492697 -1.12167051 7.13324981 -1.12025452 6.00849152 C-1.12117631 5.0585936 -1.1220981 4.10869569 -1.12304783 3.13001299 C-1 1 -1 1 0 0 Z " fill="#2C4062" transform="translate(968,666)"/>
<path d="M0 0 C4.86862204 3.34927619 8.73876327 7.75651918 10.265625 13.55859375 C10.265625 15.20859375 10.265625 16.85859375 10.265625 18.55859375 C-5.574375 18.55859375 -21.414375 18.55859375 -37.734375 18.55859375 C-36.70815281 11.3750384 -35.48194083 7.8183451 -30.734375 2.55859375 C-21.15022167 -4.43883307 -10.52054782 -5.83923488 0 0 Z " fill="#FBFBFB" transform="translate(2202.734375,919.44140625)"/>
<path d="M0 0 C7.08648525 3.9931782 11.05455459 9.33121325 13.6875 16.9375 C13.6875 17.9275 13.6875 18.9175 13.6875 19.9375 C-2.4825 19.9375 -18.6525 19.9375 -35.3125 19.9375 C-34.13222331 12.85583986 -31.83785519 7.93175046 -26.4375 3.125 C-18.06225474 -2.73767168 -9.46019702 -4.31692726 0 0 Z " fill="#F9FAFA" transform="translate(1502.3125,918.0625)"/>
<path d="M0 0 C0.66022156 0.0028299 1.32044312 0.00565979 2.00067139 0.00857544 C4.09959397 0.01972835 6.19808242 0.04482304 8.296875 0.0703125 C9.72395215 0.08034866 11.15103602 0.0894734 12.578125 0.09765625 C16.06784828 0.11965139 19.55731923 0.15414714 23.046875 0.1953125 C23.08748079 2.1235236 23.11651711 4.05198082 23.140625 5.98046875 C23.16672852 7.59127319 23.16672852 7.59127319 23.19335938 9.23461914 C22.98885575 13.36797824 21.92662108 15.24357277 19.046875 18.1953125 C11.297273 24.007514 4.66501982 24.91731801 -4.953125 24.1953125 C-9.14081329 22.69970954 -12.35986955 20.84507943 -14.953125 17.1953125 C-16.1172335 13.47584389 -16.82441247 9.94157933 -15.03125 6.34765625 C-10.60755631 0.79073239 -6.85910356 -0.058128 0 0 Z " fill="#FBFBFC" transform="translate(1231.953125,947.8046875)"/>
<path d="M0 0 C38.28 0 76.56 0 116 0 C116 9.57 116 19.14 116 29 C89.6 29 63.2 29 36 29 C36 28.67 36 28.34 36 28 C62.07 28 88.14 28 115 28 C115 19.09 115 10.18 115 1 C77.38 1 39.76 1 1 1 C1.33 49.84 1.66 98.68 2 149 C20.789375 149.020625 39.57875 149.04125 58.9375 149.0625 C67.85124634 149.07615601 67.85124634 149.07615601 76.94506836 149.09008789 C82.25135011 149.09343141 82.25135011 149.09343141 87.55763245 149.09544373 C89.92925707 149.09698378 92.30088089 149.10050994 94.67250061 149.10557556 C98.25555796 149.11284907 101.83856728 149.11390755 105.42163086 149.11352539 C106.48602607 149.1171235 107.55042128 149.12072161 108.64707088 149.12442875 C109.60565282 149.12305125 110.56423475 149.12167376 111.55186462 149.12025452 C112.81149474 149.12163721 112.81149474 149.12163721 114.09657192 149.12304783 C116.01042191 149.20958406 116.01042191 149.20958406 117 148 C117.33 139.75 117.66 131.5 118 123 C91.27 123 64.54 123 37 123 C37 122.67 37 122.34 37 122 C64.06 122 91.12 122 119 122 C119 131.57 119 141.14 119 151 C79.73 151 40.46 151 0 151 C0 101.17 0 51.34 0 0 Z " fill="#041A3F" transform="translate(1540,658)"/>
<path d="M0 0 C3.17454605 1.65494746 5.37675639 3.75351278 7 7 C7.74302374 11.06974366 7.84278604 14.55595806 5.71875 18.1953125 C2.12021929 22.4971924 -2.55530913 27.22626566 -8 29 C-12.90312578 27.24888365 -16.05035614 23.4735853 -18.8125 19.1875 C-20.26598281 15.28604615 -20.88316391 12.10507668 -20 8 C-15.54667617 -0.02305167 -8.50086007 -1.24073247 0 0 Z " fill="#FAFAFB" transform="translate(1755,890)"/>
<path d="M0 0 C38.61 0 77.22 0 117 0 C117 9.57 117 19.14 117 29 C90.27 29 63.54 29 36 29 C36 28.67 36 28.34 36 28 C53.10982865 26.94980154 70.17493741 26.88133212 87.3125 26.9375 C90.01106622 26.94311235 92.70963404 26.94720426 95.40820312 26.95117188 C101.93884406 26.96119127 108.46935419 26.98078594 115 27 C115 18.42 115 9.84 115 1 C77.38 1 39.76 1 1 1 C1.33 49.84 1.66 98.68 2 149 C40.61 149 79.22 149 119 149 C119 149.66 119 150.32 119 151 C79.73 151 40.46 151 0 151 C0 101.17 0 51.34 0 0 Z " fill="#031940" transform="translate(2152,658)"/>
<path d="M0 0 C112.86 0 225.72 0 342 0 C340.515 1.485 340.515 1.485 339 3 C338.67 2.67 338.34 2.34 338 2 C336.2181943 1.90165556 334.43244394 1.87444381 332.64792633 1.87415886 C331.47961446 1.87155111 330.3113026 1.86894336 329.10758734 1.86625659 C327.80771462 1.86848732 326.5078419 1.87071804 325.1685791 1.87301636 C323.7866202 1.87186549 322.4046616 1.87027821 321.02270365 1.86828911 C317.20735816 1.864091 313.39203748 1.86618864 309.57669187 1.86927533 C305.46894739 1.87152726 301.36120735 1.86805086 297.25346375 1.86529541 C289.19935323 1.86083649 281.145252 1.86181472 273.0911411 1.86470805 C266.54845629 1.86696161 260.00577408 1.86727481 253.46308899 1.86618423 C252.53376719 1.866031 251.60444538 1.86587777 250.64696231 1.86571989 C248.75937458 1.86540018 246.87178684 1.86507597 244.98419911 1.8647473 C227.26234146 1.86189215 209.54048898 1.86518008 191.81863219 1.87054767 C176.59506861 1.87501574 161.37151266 1.87423981 146.14794922 1.86962891 C128.49178425 1.86428376 110.83562381 1.86216685 93.17945814 1.86524117 C91.2986091 1.86555974 89.41776005 1.86587411 87.53691101 1.86618423 C86.61136977 1.86633851 85.68582853 1.86649279 84.73224059 1.86665174 C78.19342561 1.86751707 71.65461349 1.86605366 65.11579895 1.86370468 C57.15289834 1.86090714 49.19000759 1.86164397 41.22710812 1.86698543 C37.16023663 1.86962307 33.09338162 1.87062645 29.02651024 1.86733627 C25.30960343 1.86437458 21.59272851 1.86596397 17.87582463 1.87131383 C15.88135395 1.87297477 13.88688109 1.86967932 11.89241266 1.86625659 C10.13994486 1.87016822 10.13994486 1.87016822 8.35207367 1.87415886 C6.82698063 1.87440239 6.82698063 1.87440239 5.27107763 1.87465084 C3.03271237 1.74493308 3.03271237 1.74493308 2 3 C1.8758378 5.26920225 1.82196252 7.5422645 1.79467773 9.81469727 C1.78477814 10.52685394 1.77487854 11.23901062 1.76467896 11.9727478 C1.73297788 14.33726628 1.70827276 16.70180489 1.68359375 19.06640625 C1.66303164 20.70166052 1.64203537 22.33690938 1.62062073 23.97215271 C1.56532328 28.28428786 1.51594799 32.59647158 1.46777344 36.90869141 C1.41761428 41.30570824 1.36189913 45.7026542 1.30664062 50.09960938 C1.19896527 58.73301307 1.09754129 67.3664759 1 76 C0.67 76 0.34 76 0 76 C0 50.92 0 25.84 0 0 Z " fill="#071E42" transform="translate(262,661)"/>
<path d="M0 0 C44.55 0 89.1 0 135 0 C135 9.9 135 19.8 135 30 C118.83 30 102.66 30 86 30 C86 29.67 86 29.34 86 29 C101.84 29 117.68 29 134 29 C134 20.09 134 11.18 134 2 C116.9369511 2.10787762 99.87394582 2.21983802 82.81097507 2.33933926 C74.88889118 2.39468957 66.96680279 2.44817447 59.04467773 2.49731445 C52.14222538 2.54013421 45.23980643 2.58640652 38.33740562 2.63687855 C34.68041302 2.66349736 31.02342711 2.68835079 27.36639595 2.70907402 C23.29051906 2.73223526 19.2147364 2.7631024 15.13891602 2.79467773 C13.91756454 2.8004332 12.69621307 2.80618866 11.43785095 2.81211853 C10.33422211 2.82190735 9.23059326 2.83169617 8.09352112 2.84178162 C7.12840386 2.84823417 6.16328661 2.85468672 5.16892338 2.8613348 C3.0209099 2.75890646 3.0209099 2.75890646 2 4 C1.84213692 5.85174706 1.74892644 7.7090911 1.68359375 9.56640625 C1.64169922 10.69111328 1.59980469 11.81582031 1.55664062 12.97460938 C1.51732422 14.15861328 1.47800781 15.34261719 1.4375 16.5625 C1.39431641 17.75037109 1.35113281 18.93824219 1.30664062 20.16210938 C1.20016454 23.10794784 1.09815159 26.0538743 1 29 C1.78842285 28.83250244 2.5768457 28.66500488 3.38916016 28.49243164 C7.89925993 27.87736259 12.23244439 27.98280181 16.7734375 28.12109375 C18.1590538 28.15651024 18.1590538 28.15651024 19.57266235 28.19264221 C22.50694716 28.26887494 25.44094071 28.35307183 28.375 28.4375 C30.37107976 28.49076117 32.3671735 28.54350126 34.36328125 28.59570312 C39.24236999 28.72443509 44.12121327 28.86030743 49 29 C49 29.33 49 29.66 49 30 C32.83 30 16.66 30 0 30 C0 20.1 0 10.2 0 0 Z " fill="#273A5C" transform="translate(1097,657)"/>
<path d="M0 0 C0.33 0 0.66 0 1 0 C1 9.57 1 19.14 1 29 C-25.73 29 -52.46 29 -80 29 C-80 28.67 -80 28.34 -80 28 C-62.89017135 26.94980154 -45.82506259 26.88133212 -28.6875 26.9375 C-25.98893376 26.94311235 -23.29036591 26.94715945 -20.59179688 26.95117188 C-14.06117749 26.96205236 -7.5305932 26.97867352 -1 27 C-1.00523682 26.21761963 -1.01047363 25.43523926 -1.01586914 24.62915039 C-1.03657106 21.10694167 -1.04963838 17.5847457 -1.0625 14.0625 C-1.07087891 12.83080078 -1.07925781 11.59910156 -1.08789062 10.33007812 C-1.09111328 9.16025391 -1.09433594 7.99042969 -1.09765625 6.78515625 C-1.10289307 5.70113525 -1.10812988 4.61711426 -1.11352539 3.50024414 C-1 1 -1 1 0 0 Z " fill="#0B2245" transform="translate(2268,658)"/>
<path d="M0 0 C0 9.24 0 18.48 0 28 C-12.54 28 -25.08 28 -38 28 C-38 27.67 -38 27.34 -38 27 C-26.12 27 -14.24 27 -2 27 C-2.144375 23.08125 -2.28875 19.1625 -2.4375 15.125 C-2.48060303 13.89023926 -2.52370605 12.65547852 -2.56811523 11.38330078 C-2.6252771 9.92899658 -2.6252771 9.92899658 -2.68359375 8.4453125 C-2.73858032 6.95281982 -2.73858032 6.95281982 -2.79467773 5.43017578 C-2.84959532 2.99220499 -2.84959532 2.99220499 -4 1 C-1 0 -1 0 0 0 Z " fill="#152A4D" transform="translate(1647,718)"/>
<path d="M0 0 C13.86 0 27.72 0 42 0 C42 0.66 42 1.32 42 2 C28.47 2.33 14.94 2.66 1 3 C0.67 2.01 0.34 1.02 0 0 Z " fill="#3D4E6D" transform="translate(1670,657)"/>
<path d="M0 0 C13.53 0 27.06 0 41 0 C40.67 0.99 40.34 1.98 40 3 C20.2 2.505 20.2 2.505 0 2 C0 1.34 0 0.68 0 0 Z " fill="#3C4D6B" transform="translate(1778,657)"/>
<path d="M0 0 C5.625 2.25 5.625 2.25 8 5 C5.03 4.505 5.03 4.505 2 4 C1.67 21.49 1.34 38.98 1 57 C0.67 57 0.34 57 0 57 C0 38.19 0 19.38 0 0 Z " fill="#B22F2A" transform="translate(885,491)"/>
<path d="M0 0 C1.32 0.33 2.64 0.66 4 1 C0.50358611 3.45261754 -3.00185425 5.89153799 -6.51635742 8.31811523 C-7.71100056 9.14577543 -8.90308158 9.97714643 -10.0925293 10.81225586 C-11.80119912 12.01096003 -13.51859231 13.19608446 -15.23828125 14.37890625 C-16.26993408 15.0963501 -17.30158691 15.81379395 -18.36450195 16.55297852 C-19.23421631 17.03049561 -20.10393066 17.5080127 -21 18 C-21.99 17.67 -22.98 17.34 -24 17 C-23.01 16.67 -22.02 16.34 -21 16 C-21 15.34 -21 14.68 -21 14 C-18 12 -18 12 -15 12 C-15 11.34 -15 10.68 -15 10 C-14.34 10 -13.68 10 -13 10 C-13 9.34 -13 8.68 -13 8 C-11.02 7.67 -9.04 7.34 -7 7 C-7 6.34 -7 5.68 -7 5 C-4 3 -4 3 -1 3 C-0.67 2.01 -0.34 1.02 0 0 Z " fill="#B9413B" transform="translate(916,663)"/>
<path d="M0 0 C-3.77613581 4.25073211 -8.4177147 7.14155568 -13.125 10.25 C-13.94871094 10.80429687 -14.77242187 11.35859375 -15.62109375 11.9296875 C-16.80251953 12.71472656 -16.80251953 12.71472656 -18.0078125 13.515625 C-19.08506592 14.23153809 -19.08506592 14.23153809 -20.18408203 14.96191406 C-22 16 -22 16 -24 16 C-24 15.34 -24 14.68 -24 14 C-23.34 14 -22.68 14 -22 14 C-22 13.34 -22 12.68 -22 12 C-20.35 11.67 -18.7 11.34 -17 11 C-16.67 10.01 -16.34 9.02 -16 8 C-10.62857143 4 -10.62857143 4 -8 4 C-8 3.34 -8 2.68 -8 2 C-4.77208445 -0.1519437 -3.71599191 -0.20086443 0 0 Z " fill="#BB443E" transform="translate(965,633)"/>
<path d="M0 0 C0.33 0 0.66 0 1 0 C1 5.94 1 11.88 1 18 C2.98 17.67 4.96 17.34 7 17 C4.48580485 19.69378051 2.32759923 21.44805246 -1 23 C-1.02887512 19.35418313 -1.04675585 15.70839537 -1.0625 12.0625 C-1.07087891 11.02158203 -1.07925781 9.98066406 -1.08789062 8.90820312 C-1.09272461 7.42416992 -1.09272461 7.42416992 -1.09765625 5.91015625 C-1.10289307 4.99371338 -1.10812988 4.07727051 -1.11352539 3.13305664 C-1 1 -1 1 0 0 Z " fill="#B93A33" transform="translate(886,664)"/>
<path d="M0 0 C0.99 0.99 1.98 1.98 3 3 C-11.19 3 -25.38 3 -40 3 C-40 2.34 -40 1.68 -40 1 C-38.82381104 1.00523682 -37.64762207 1.01047363 -36.43579102 1.01586914 C-32.08797969 1.03391663 -27.7401717 1.04543108 -23.39233398 1.05493164 C-21.5075627 1.05997244 -19.62279535 1.06680498 -17.73803711 1.07543945 C-15.03498364 1.08751617 -12.33198169 1.09323068 -9.62890625 1.09765625 C-8.35703209 1.10539818 -8.35703209 1.10539818 -7.0594635 1.11329651 C-5.03928932 1.11349195 -3.01922066 1.06206211 -1 1 C-0.67 0.67 -0.34 0.34 0 0 Z " fill="#061A3E" transform="translate(1820,806)"/>
<path d="M0 0 C0.66 0.33 1.32 0.66 2 1 C-10.48519362 13.85421412 -10.48519362 13.85421412 -17 18 C-15.34460834 13.74327859 -12.26236271 11.00257093 -9.0625 7.875 C-8.52431641 7.33746094 -7.98613281 6.79992187 -7.43164062 6.24609375 C-5.05290666 3.89375758 -2.79133165 1.86088777 0 0 Z " fill="#092148" transform="translate(608,694)"/>
<path d="M0 0 C7.11484687 0.3856646 13.35441866 1.39099399 20 4 C20 4.33 20 4.66 20 5 C13.43429568 5.44766166 7.21488992 4.13698108 1 2 C0.67 1.34 0.34 0.68 0 0 Z " fill="#23385B" transform="translate(2331,744)"/>
<path d="M0 0 C6.24430328 3.33619986 12.16769769 6.98770692 18 11 C17.01 11.33 16.02 11.66 15 12 C12.94921875 10.890625 12.94921875 10.890625 10.6875 9.25 C7.21153863 6.80773956 3.85179768 4.77775278 0 3 C0 2.01 0 1.02 0 0 Z " fill="#B8443E" transform="translate(964,543)"/>
<path d="M0 0 C1.29105311 3.87315934 0.38920906 4.84572631 -1.375 8.4375 C-2.92307372 11.61580778 -4.29381892 14.52657446 -5 18 C-5.66 18 -6.32 18 -7 18 C-6.33333333 14.66666667 -5.66666667 11.33333333 -5 8 C-4.34 8 -3.68 8 -3 8 C-2.814375 6.576875 -2.814375 6.576875 -2.625 5.125 C-2 2 -2 2 0 0 Z " fill="#0D244D" transform="translate(1282,705)"/>
<path d="M0 0 C0 3 0 3 -2.1875 5.48046875 C-3.115625 6.37378906 -4.04375 7.26710938 -5 8.1875 C-5.928125 9.08855469 -6.85625 9.98960937 -7.8125 10.91796875 C-8.534375 11.60503906 -9.25625 12.29210937 -10 13 C-10.66 12.67 -11.32 12.34 -12 12 C-8.27653164 7.57905197 -4.70478962 3.42166518 0 0 Z " fill="#13284F" transform="translate(2450,666)"/>
<path d="M0 0 C0.99 0.33 1.98 0.66 3 1 C1.54845769 4.62885578 -0.2400638 6.15432673 -3.5 8.25 C-4.2940625 8.77078125 -5.088125 9.2915625 -5.90625 9.828125 C-8 11 -8 11 -10 11 C-10 10.01 -10 9.02 -10 8 C-9.01 8 -8.02 8 -7 8 C-7 7.34 -7 6.68 -7 6 C-5.35 5.67 -3.7 5.34 -2 5 C-2 4.34 -2 3.68 -2 3 C-1.34 2.67 -0.68 2.34 0 2 C0 1.34 0 0.68 0 0 Z " fill="#B84A45" transform="translate(1029,586)"/>
<path d="M0 0 C5.1588796 2.79725916 10.17342499 5.658525 15 9 C13.359375 9.703125 13.359375 9.703125 11 10 C8.203125 8.671875 8.203125 8.671875 5.25 6.75 C3.77273438 5.81414063 3.77273438 5.81414063 2.265625 4.859375 C1.51796875 4.24578125 0.7703125 3.6321875 0 3 C0 2.01 0 1.02 0 0 Z " fill="#BB4B45" transform="translate(913,509)"/>
<path d="M0 0 C1.32 0.33 2.64 0.66 4 1 C-0.29 3.97 -4.58 6.94 -9 10 C-9.33 9.01 -9.66 8.02 -10 7 C-9.01 7 -8.02 7 -7 7 C-6.67 6.01 -6.34 5.02 -6 4 C-5.01 4 -4.02 4 -3 4 C-3 3.34 -3 2.68 -3 2 C-2.01 2 -1.02 2 0 2 C0 1.34 0 0.68 0 0 Z " fill="#B63937" transform="translate(937,649)"/>
<path d="M0 0 C-1.95467752 1.33898399 -3.9133579 2.67129047 -5.875 4 C-6.96554687 4.7425 -8.05609375 5.485 -9.1796875 6.25 C-12 8 -12 8 -14 8 C-14 7.34 -14 6.68 -14 6 C-13.34 6 -12.68 6 -12 6 C-12 5.34 -12 4.68 -12 4 C-11.01 4 -10.02 4 -9 4 C-9 3.34 -9 2.68 -9 2 C-5.59159007 -0.55630744 -4.03546861 -1.28479663 0 0 Z " fill="#BA4540" transform="translate(985,621)"/>
<path d="M0 0 C8.25 0 16.5 0 25 0 C24.01 0.99 23.02 1.98 22 3 C21.67 2.67 21.34 2.34 21 2 C19.44051458 1.84313751 17.87457332 1.74923361 16.30859375 1.68359375 C15.36435547 1.64169922 14.42011719 1.59980469 13.44726562 1.55664062 C12.45404297 1.51732422 11.46082031 1.47800781 10.4375 1.4375 C9.44041016 1.39431641 8.44332031 1.35113281 7.41601562 1.30664062 C4.9441585 1.20019702 2.4721969 1.09818072 0 1 C0 0.67 0 0.34 0 0 Z " fill="#132646" transform="translate(579,661)"/>
<path d="M0 0 C11.36363636 1.36363636 11.36363636 1.36363636 15 5 C9.33895411 4.50341703 5.12325529 3.45489316 0 1 C0 0.67 0 0.34 0 0 Z " fill="#243758" transform="translate(2309,805)"/>
<path d="M0 0 C1.32 0.33 2.64 0.66 4 1 C2.3790787 2.17232685 0.75313167 3.3377077 -0.875 4.5 C-1.77992188 5.1496875 -2.68484375 5.799375 -3.6171875 6.46875 C-6 8 -6 8 -8 8 C-8 7.01 -8 6.02 -8 5 C-5.35261084 3.5393715 -4.10551666 3 -1 3 C-0.67 2.01 -0.34 1.02 0 0 Z " fill="#B94541" transform="translate(1015,597)"/>
<path d="M0 0 C3.45925163 1.2491742 6.14693203 2.67527795 9 5 C8.113125 4.79375 7.22625 4.5875 6.3125 4.375 C2.7747289 3.97449761 1.13367033 4.43316484 -2 6 C-1.34 4.02 -0.68 2.04 0 0 Z " fill="#223657" transform="translate(2299,766)"/>
<path d="M0 0 C0.99 0.33 1.98 0.66 3 1 C0.03 3.97 -2.94 6.94 -6 10 C-6.33 9.01 -6.66 8.02 -7 7 C-4.69 4.69 -2.38 2.38 0 0 Z " fill="#092048" transform="translate(2306,668)"/>
<path d="M0 0 C1.44098611 0.76429661 2.87766054 1.53672555 4.3125 2.3125 C5.11300781 2.74175781 5.91351562 3.17101562 6.73828125 3.61328125 C8.83787272 4.90059554 10.35447721 6.18406708 12 8 C7.02833396 7.526508 3.89003364 6.14907485 0 3 C0 2.01 0 1.02 0 0 Z " fill="#BB4742" transform="translate(1017,578)"/>
<path d="M0 0 C2.49361571 1.20381448 4.68143083 2.45428722 7 4 C7.66 4 8.32 4 9 4 C9 3.34 9 2.68 9 2 C9.66 2 10.32 2 11 2 C10.05830937 4.43270079 9.47018066 5.72437686 7.1875 7.0625 C5 7 5 7 2.25 4.6875 C0 2 0 2 0 0 Z " fill="#1C2F50" transform="translate(1355,697)"/>
<path d="M0 0 C0.33 0.99 0.66 1.98 1 3 C-1.96283313 5.38672669 -4.94270509 7.7353371 -8 10 C-8.66 9.67 -9.32 9.34 -10 9 C-6.7 6.03 -3.4 3.06 0 0 Z " fill="#253B60" transform="translate(1268,671)"/>
<path d="M0 0 C0.33 0.99 0.66 1.98 1 3 C-0.21484375 5.26171875 -0.21484375 5.26171875 -1.9375 7.6875 C-2.50339844 8.49574219 -3.06929687 9.30398438 -3.65234375 10.13671875 C-4.09707031 10.75160156 -4.54179688 11.36648438 -5 12 C-6.125 8.25 -6.125 8.25 -5 6 C-4.34 6 -3.68 6 -3 6 C-2.690625 5.195625 -2.38125 4.39125 -2.0625 3.5625 C-1 1 -1 1 0 0 Z " fill="#1C3155" transform="translate(1730,775)"/>
<path d="M0 0 C2 1.375 2 1.375 4 3 C4 3.66 4 4.32 4 5 C0.7 5 -2.6 5 -6 5 C-2 3 -2 3 0 3 C0 2.01 0 1.02 0 0 Z " fill="#0F2449" transform="translate(2126,804)"/>
<path d="M0 0 C3.46941546 0.45822468 6.67395049 0.89131683 10 2 C10 2.66 10 3.32 10 4 C6.7 3.34 3.4 2.68 0 2 C0 1.34 0 0.68 0 0 Z " fill="#23395E" transform="translate(2451,805)"/>
<path d="M0 0 C0.99 0.33 1.98 0.66 3 1 C0.03 5.95 0.03 5.95 -3 11 C-4 7 -4 7 -3.22265625 5.078125 C-1.61132812 2.5390625 -1.61132812 2.5390625 0 0 Z " fill="#1A2F53" transform="translate(547,715)"/>
<path d="M0 0 C7.48291572 6.15034169 7.48291572 6.15034169 10 10 C7 10 7 10 5.17578125 8.3203125 C4.56089844 7.59585938 3.94601562 6.87140625 3.3125 6.125 C2.68988281 5.40570312 2.06726563 4.68640625 1.42578125 3.9453125 C0 2 0 2 0 0 Z " fill="#1A2F54" transform="translate(841,704)"/>
<path d="M0 0 C0 3.97054597 -1.3139381 5.16471244 -4 8 C-6.140625 8.6484375 -6.140625 8.6484375 -8 9 C-7.04270084 7.87411986 -6.08412105 6.7493285 -5.125 5.625 C-4.59132813 4.99851562 -4.05765625 4.37203125 -3.5078125 3.7265625 C-2.38567993 2.44163349 -1.20628025 1.20628025 0 0 Z " fill="#1B3055" transform="translate(780,886)"/>
<path d="M0 0 C0.66 0 1.32 0 2 0 C2.1875 3.375 2.1875 3.375 2 7 C1.01 7.66 0.02 8.32 -1 9 C-0.67 6.03 -0.34 3.06 0 0 Z " fill="#314668" transform="translate(551,784)"/>
<path d="M0 0 C0.66 0 1.32 0 2 0 C1.6189482 2.76262553 1.16402868 3.84143894 -0.875 5.8125 C-1.57625 6.204375 -2.2775 6.59625 -3 7 C-3.99 6.67 -4.98 6.34 -6 6 C-5.195625 5.38125 -4.39125 4.7625 -3.5625 4.125 C-0.96125481 2.25835959 -0.96125481 2.25835959 0 0 Z " fill="#1F355C" transform="translate(2517,772)"/>
<path d="M0 0 C0.33 0.99 0.66 1.98 1 3 C-0.58133449 6.16266898 -2.38114512 8.63055987 -5 11 C-5 7.58678765 -4.33132534 6.60527115 -2.5 3.8125 C-2.0359375 3.09707031 -1.571875 2.38164063 -1.09375 1.64453125 C-0.7328125 1.10183594 -0.371875 0.55914063 0 0 Z " fill="#182F55" transform="translate(1704,755)"/>
<path d="M0 0 C4.43458973 1.3937282 6.87378374 3.60582235 10 7 C6.433255 7 5.89456323 6.36308045 3.3125 4.0625 C2.68988281 3.51722656 2.06726563 2.97195313 1.42578125 2.41015625 C0.95527344 1.94480469 0.48476563 1.47945312 0 1 C0 0.67 0 0.34 0 0 Z " fill="#1A3057" transform="translate(770,748)"/>
<path d="M0 0 C0.66 0.66 1.32 1.32 2 2 C0.35 3.32 -1.3 4.64 -3 6 C-3.66 5.67 -4.32 5.34 -5 5 C-3.35 3.35 -1.7 1.7 0 0 Z " fill="#142D56" transform="translate(590,711)"/>
<path d="M0 0 C5.75 -0.125 5.75 -0.125 8 1 C8 1.66 8 2.32 8 3 C5.36 2.67 2.72 2.34 0 2 C0 1.34 0 0.68 0 0 Z " fill="#243B60" transform="translate(2476,745)"/>
<path d="M0 0 C0.66 0.33 1.32 0.66 2 1 C1.38125 1.2475 0.7625 1.495 0.125 1.75 C-2.35068687 3.20628639 -2.95125002 4.37812506 -4 7 C-4.99 6.34 -5.98 5.68 -7 5 C-4.69 3.35 -2.38 1.7 0 0 Z " fill="#FDDDDB" transform="translate(995,613)"/>
<path d="M0 0 C3.465 1.98 3.465 1.98 7 4 C4 5 4 5 1 4 C0.67 4.99 0.34 5.98 0 7 C0 4.69 0 2.38 0 0 Z " fill="#B83533" transform="translate(886,491)"/>
<path d="M0 0 C1 3 1 3 -0.4375 6.1875 C-1.2109375 7.5796875 -1.2109375 7.5796875 -2 9 C-2.33 9 -2.66 9 -3 9 C-2.25 2.25 -2.25 2.25 0 0 Z " fill="#193052" transform="translate(1282,705)"/>
</svg>
